<svg width="150" height="150" viewBox="0 0 150 150" fill="none" xmlns="http://www.w3.org/2000/svg">
<path d="M75 148.891C115.809 148.891 148.891 115.809 148.891 75C148.891 34.1911 115.809 1.10886 75 1.10886C34.1911 1.10886 1.10886 34.1911 1.10886 75C1.10886 115.809 34.1911 148.891 75 148.891Z" fill="#292929"/>
<path d="M75 0C95.7096 0 114.46 8.39555 128.033 21.9671C141.606 35.5387 150 54.289 150 75C150 95.7096 141.604 114.46 128.033 128.033C114.46 141.606 95.711 150 75 150C54.289 150 35.5387 141.604 21.9671 128.033C8.39416 114.46 0 95.711 0 75C0 54.289 8.39555 35.5387 21.9671 21.9671C35.5387 8.39416 54.289 0 75 0V0ZM126.464 23.5359C113.294 10.3659 95.0982 2.21908 75 2.21908C54.9018 2.21908 36.7059 10.3659 23.5359 23.5359C10.3645 36.7059 2.21908 54.9018 2.21908 75C2.21908 95.0982 10.3659 113.294 23.5359 126.464C36.7059 139.635 54.9018 147.781 75 147.781C95.0982 147.781 113.294 139.634 126.464 126.464C139.634 113.294 147.781 95.0982 147.781 75C147.781 54.9018 139.634 36.7059 126.464 23.5359Z" fill="black"/>
<path d="M27.0542 18.7504L18.749 27.0556C21.2932 24.0723 24.0723 21.296 27.0542 18.7504Z" fill="black"/>
<path d="M48.7156 5.90137L5.90134 48.7156C6.60722 46.862 7.38258 45.0431 8.2288 43.2645L43.2645 8.22883C45.0431 7.38122 46.862 6.60586 48.7156 5.90137Z" fill="black"/>
<path d="M61.0185 2.41223L2.41223 61.0185C2.67068 59.6707 2.96388 58.3353 3.29458 57.0139L57.0139 3.29458C58.3353 2.96388 59.6707 2.67068 61.0185 2.41223Z" fill="black"/>
<path d="M71.0523 1.19083L1.19083 71.0523C1.25058 69.9185 1.33673 68.7929 1.4465 67.6744L67.673 1.44789C68.7915 1.33812 69.9185 1.25197 71.0509 1.19222L71.0523 1.19083Z" fill="black"/>
<path d="M79.8105 1.24642L1.2464 79.8106C1.18249 78.8198 1.13524 77.8249 1.11023 76.8245L76.8258 1.10886C77.8263 1.13526 78.8212 1.18111 79.8119 1.24503L79.8105 1.24642Z" fill="black"/>
<path d="M87.6934 2.17601L2.176 87.6934C2.02037 86.7971 1.88281 85.8939 1.76053 84.9866L84.9879 1.75916C85.8953 1.88143 86.7971 2.02039 87.6947 2.17463L87.6934 2.17601Z" fill="black"/>
<path d="M94.887 3.79622L3.79619 94.887C3.56691 94.0658 3.35431 93.239 3.15283 92.4067L92.4066 3.15286C93.239 3.35434 94.0658 3.56694 94.887 3.79622Z" fill="black"/>
<path d="M101.508 5.98752L5.9875 101.508C5.69709 100.752 5.41779 99.9894 5.151 99.221L99.2223 5.14963C99.9907 5.41642 100.752 5.69432 101.51 5.98613L101.508 5.98752Z" fill="black"/>
<path d="M107.639 8.67068L8.67066 107.639C8.32606 106.938 7.9884 106.234 7.66464 105.522L105.524 7.66327C106.237 7.98703 106.94 8.32469 107.64 8.66929L107.639 8.67068Z" fill="black"/>
<path d="M113.332 11.7902L11.7888 113.333C11.3942 112.683 11.012 112.024 10.6369 111.363L111.36 10.6396C112.023 11.0148 112.681 11.3969 113.33 11.7916L113.332 11.7902Z" fill="black"/>
<path d="M118.612 15.3238L15.3237 118.612C14.8833 118.01 14.4497 117.402 14.0273 116.786L116.785 14.0287C117.4 14.4511 118.009 14.8833 118.61 15.3252L118.612 15.3238Z" fill="black"/>
<path d="M123.513 19.2353L19.2353 123.513C18.7503 122.956 18.2737 122.391 17.8055 121.819L121.819 17.8055C122.39 18.2738 122.956 18.7504 123.513 19.2353Z" fill="black"/>
<path d="M128.037 23.5248L23.5262 128.036C22.9981 127.523 22.4771 127.003 21.9643 126.474L126.475 21.963C127.003 22.4757 127.524 22.9968 128.037 23.5248Z" fill="black"/>
<path d="M132.195 28.1797L28.1811 132.193C27.61 131.725 27.0444 131.248 26.4872 130.763L130.765 26.4859C131.25 27.0431 131.726 27.6072 132.195 28.1797Z" fill="black"/>
<path d="M135.973 33.2154L33.2154 135.973C32.5998 135.55 31.9912 135.118 31.3895 134.676L134.678 31.3882C135.118 31.9898 135.55 32.5984 135.974 33.214L135.973 33.2154Z" fill="black"/>
<path d="M139.362 38.6388L38.6387 139.362C37.9759 138.987 37.3173 138.604 36.6684 138.21L138.21 36.6684C138.604 37.3173 138.987 37.9773 139.362 38.6388Z" fill="black"/>
<path d="M142.337 44.4775L44.4789 142.335C43.7675 142.012 43.063 141.674 42.3627 141.329L141.331 42.3613C141.675 43.0616 142.013 43.7647 142.337 44.4775Z" fill="black"/>
<path d="M144.849 50.7791L50.7791 144.849C50.0106 144.582 49.2492 144.304 48.4919 144.014L144.012 48.4933C144.303 49.2492 144.582 50.012 144.848 50.7805L144.849 50.7791Z" fill="black"/>
<path d="M146.847 57.5934L57.5933 146.847C56.761 146.646 55.9342 146.433 55.113 146.204L146.204 55.113C146.433 55.9343 146.646 56.761 146.847 57.5934Z" fill="black"/>
<path d="M148.239 65.0135L65.0134 148.239C64.106 148.117 63.2028 147.98 62.3066 147.824L147.824 62.3066C147.98 63.2029 148.117 64.1061 148.239 65.0135Z" fill="black"/>
<path d="M148.89 73.1756L73.1756 148.89C72.1751 148.866 71.1802 148.818 70.1895 148.754L148.752 70.1909C148.816 71.1816 148.865 72.1765 148.888 73.177L148.89 73.1756Z" fill="black"/>
<path d="M148.552 82.327L82.327 148.552C81.207 148.662 80.0815 148.748 78.9476 148.808L148.808 78.9476C148.748 80.0815 148.662 81.207 148.552 82.327Z" fill="black"/>
<path d="M146.705 92.9875L92.9875 146.705C91.666 147.036 90.3307 147.329 88.9828 147.588L147.588 88.9828C147.329 90.3307 147.036 91.666 146.705 92.9875Z" fill="black"/>
<path d="M141.768 106.736L106.736 141.768C104.957 142.616 103.138 143.391 101.284 144.097L144.096 101.286C143.39 103.139 142.615 104.958 141.768 106.737V106.736Z" fill="black"/>
<path d="M122.95 131.246L131.244 122.951C128.703 125.931 125.929 128.704 122.95 131.246Z" fill="black"/>
<path d="M53.8069 48.3738H96.1931C97.5827 48.3738 98.8444 48.9421 99.7587 49.855C100.673 50.7693 101.24 52.031 101.24 53.4206V96.5767C101.24 97.9662 100.672 99.2293 99.7587 100.142C98.8444 101.056 97.5827 101.623 96.1931 101.623H53.8069C52.4173 101.623 51.1542 101.056 50.2413 100.142C49.327 99.2279 48.7601 97.9662 48.7601 96.5767V53.4206C48.7601 52.031 49.327 50.7693 50.2413 49.855C51.1556 48.9407 52.4173 48.3738 53.8069 48.3738ZM96.1931 51.1473H53.8069C53.183 51.1473 52.6146 51.4043 52.2019 51.817C51.7892 52.2297 51.5336 52.798 51.5336 53.4219V96.578C51.5336 97.2019 51.7892 97.7703 52.2019 98.1829C52.6146 98.5956 53.183 98.8513 53.8069 98.8513H96.1931C96.8171 98.8513 97.3854 98.5956 97.7981 98.1829C98.2108 97.7703 98.4678 97.2019 98.4678 96.578V53.4219C98.4678 52.798 98.2108 52.2297 97.7981 51.817C97.3854 51.4043 96.8171 51.1473 96.1931 51.1473Z" fill="#FEFEFE"/>
<path d="M59.2858 63.5947H70.9175C71.5706 63.5947 72.1667 63.8629 72.5989 64.295L72.6044 64.3006C73.0352 64.7327 73.3048 65.3275 73.3048 65.9819V77.5609C73.3048 78.2181 73.0366 78.8156 72.6044 79.2478C72.5669 79.2853 72.5266 79.3214 72.4849 79.3534C72.0653 79.7216 71.515 79.9467 70.9175 79.9467H59.2858C58.6285 79.9467 58.031 79.6785 57.5989 79.2464C57.1681 78.8156 56.8986 78.2181 56.8986 77.5595V65.9805C56.8986 65.3275 57.1667 64.7313 57.5989 64.2992V64.2936C58.0296 63.8629 58.6271 63.5933 59.2858 63.5933V63.5947ZM70.5299 66.3682H59.6721V77.1746H70.5299V66.3682Z" fill="#FEFEFE"/>
<path d="M57.8532 60.0139C57.0876 60.0139 56.4664 59.3927 56.4664 58.6271C56.4664 57.8615 57.0876 57.2404 57.8532 57.2404H92.1482C92.9138 57.2404 93.535 57.8615 93.535 58.6271C93.535 59.3927 92.9138 60.0139 92.1482 60.0139H57.8532Z" fill="#FEFEFE"/>
<path d="M77.0232 66.1751C76.2575 66.1751 75.6364 65.5539 75.6364 64.7883C75.6364 64.0227 76.2575 63.4016 77.0232 63.4016H92.1468C92.9125 63.4016 93.5336 64.0227 93.5336 64.7883C93.5336 65.5539 92.9125 66.1751 92.1468 66.1751H77.0232Z" fill="#FEFEFE"/>
<path d="M77.0232 73.4965C76.2575 73.4965 75.6364 72.8754 75.6364 72.1098C75.6364 71.3441 76.2575 70.723 77.0232 70.723H92.1468C92.9125 70.723 93.5336 71.3441 93.5336 72.1098C93.5336 72.8754 92.9125 73.4965 92.1468 73.4965H77.0232Z" fill="#FEFEFE"/>
<path d="M77.0232 79.9509C76.2575 79.9509 75.6364 79.3298 75.6364 78.5641C75.6364 77.7985 76.2575 77.1774 77.0232 77.1774H92.1468C92.9125 77.1774 93.5336 77.7985 93.5336 78.5641C93.5336 79.3298 92.9125 79.9509 92.1468 79.9509H77.0232Z" fill="#FEFEFE"/>
<path d="M77.0232 86.5984C76.2575 86.5984 75.6364 85.9773 75.6364 85.2116C75.6364 84.446 76.2575 83.8249 77.0232 83.8249H92.1468C92.9125 83.8249 93.5336 84.446 93.5336 85.2116C93.5336 85.9773 92.9125 86.5984 92.1468 86.5984H77.0232Z" fill="#FEFEFE"/>
<path d="M77.0232 93.1487C76.2575 93.1487 75.6364 92.5276 75.6364 91.7619C75.6364 90.9963 76.2575 90.3752 77.0232 90.3752H92.1468C92.9125 90.3752 93.5336 90.9963 93.5336 91.7619C93.5336 92.5276 92.9125 93.1487 92.1468 93.1487H77.0232Z" fill="#FEFEFE"/>
<path d="M58.2867 93.1487C57.5211 93.1487 56.9 92.5276 56.9 91.7619C56.9 90.9963 57.5211 90.3752 58.2867 90.3752H73.4104C74.176 90.3752 74.7971 90.9963 74.7971 91.7619C74.7971 92.5276 74.176 93.1487 73.4104 93.1487H58.2867Z" fill="#FEFEFE"/>
<path d="M58.2867 86.1162C57.5211 86.1162 56.9 85.4951 56.9 84.7295C56.9 83.9638 57.5211 83.3427 58.2867 83.3427H73.4104C74.176 83.3427 74.7971 83.9638 74.7971 84.7295C74.7971 85.4951 74.176 86.1162 73.4104 86.1162H58.2867Z" fill="#FEFEFE"/>
</svg>
