<svg width="150" height="150" viewBox="0 0 150 150" fill="none" xmlns="http://www.w3.org/2000/svg">
<path d="M74.9998 148.89C115.808 148.89 148.89 115.808 148.89 74.9998C148.89 34.1911 115.808 1.10919 74.9998 1.10919C34.1912 1.10919 1.10925 34.1911 1.10925 74.9998C1.10925 115.808 34.1912 148.89 74.9998 148.89Z" fill="#292929"/>
<path d="M74.9998 0C95.71 0 114.46 8.3947 128.033 21.9673C141.605 35.5395 150 54.2895 150 75.0003C150 95.7105 141.605 114.461 128.033 128.033C114.461 141.605 95.71 150.001 74.9998 150.001C54.2896 150.001 35.539 141.606 21.9669 128.033C8.39472 114.461 -0.000488281 95.7105 -0.000488281 75.0003C-0.000488281 54.29 8.39422 35.5395 21.9669 21.9673C35.539 8.39521 54.2891 0 74.9998 0V0ZM126.464 23.5354C113.294 10.3649 95.0977 2.2184 74.9998 2.2184C54.9013 2.2184 36.7059 10.3644 23.5354 23.5354C10.3644 36.7058 2.21841 54.9013 2.21841 74.9998C2.21841 95.0977 10.3649 113.294 23.5354 126.464C36.7059 139.635 54.9013 147.781 74.9998 147.781C95.0977 147.781 113.294 139.635 126.464 126.464C139.635 113.294 147.781 95.0977 147.781 74.9998C147.781 54.9013 139.635 36.7058 126.464 23.5354Z" fill="black"/>
<path d="M27.054 18.7501L18.7486 27.0555C21.2934 24.0724 24.0714 21.2954 27.054 18.7501Z" fill="black"/>
<path d="M48.7155 5.90204L5.90155 48.716C6.60658 46.8626 7.38282 45.0439 8.22976 43.2653L43.2648 8.23025C45.0434 7.38331 46.8622 6.60757 48.7155 5.90204Z" fill="black"/>
<path d="M61.0185 2.41248L2.41254 61.0185C2.67078 59.6706 2.96413 58.3347 3.29458 57.0139L57.014 3.29452C58.3353 2.96407 59.6706 2.67072 61.0185 2.41248Z" fill="black"/>
<path d="M71.0529 1.19095L1.19147 71.0524C1.25114 69.9191 1.33739 68.7929 1.4472 67.6736L67.6742 1.44669C68.7934 1.33687 69.9196 1.25062 71.0529 1.19095Z" fill="black"/>
<path d="M79.8112 1.2461L1.24615 79.8111C1.18196 78.8208 1.13533 77.8254 1.10925 76.8255L76.8251 1.10971C77.825 1.13528 78.8203 1.18242 79.8107 1.24661L79.8112 1.2461Z" fill="black"/>
<path d="M87.6934 2.17578L2.17584 87.6934C2.0204 86.7968 1.8825 85.8942 1.75964 84.9866L84.9866 1.75958C85.8942 1.88244 86.7963 2.02033 87.6934 2.17578Z" fill="black"/>
<path d="M94.8871 3.79596L3.79599 94.8871C3.56733 94.0662 3.35422 93.2389 3.15314 92.407L92.407 3.15311C93.2389 3.35419 94.0668 3.5668 94.8871 3.79596Z" fill="black"/>
<path d="M101.509 5.98726L5.98734 101.509C5.6965 100.753 5.4177 99.9903 5.15143 99.2221L99.2227 5.15085C99.9904 5.41712 100.753 5.69592 101.509 5.98676L101.509 5.98726Z" fill="black"/>
<path d="M107.639 8.67002L8.67004 107.639C8.32504 106.939 7.98757 106.235 7.66364 105.522L105.523 7.66312C106.235 7.98655 106.939 8.32452 107.639 8.66952V8.67002Z" fill="black"/>
<path d="M113.332 11.79L11.7901 113.332C11.3949 112.683 11.0133 112.024 10.6382 111.362L111.362 10.6382C112.024 11.0133 112.683 11.3949 113.332 11.79Z" fill="black"/>
<path d="M118.612 15.3237L15.3238 118.612C14.883 118.009 14.4502 117.401 14.0275 116.785L116.785 14.0275C117.401 14.4502 118.009 14.8829 118.612 15.3237Z" fill="black"/>
<path d="M123.513 19.236L19.2355 123.513C18.7506 122.957 18.2743 122.391 17.8059 121.82L121.819 17.8064C122.391 18.2747 122.956 18.7511 123.513 19.236Z" fill="black"/>
<path d="M128.037 23.5253L23.5249 128.037C22.9964 127.524 22.4764 127.004 21.9634 126.476L126.475 21.9638C127.003 22.4768 127.524 22.9968 128.037 23.5253Z" fill="black"/>
<path d="M132.194 28.1803L28.1808 132.194C27.6092 131.725 27.0445 131.249 26.4874 130.764L130.765 26.4869C131.25 27.0435 131.726 27.6086 132.194 28.1803Z" fill="black"/>
<path d="M135.973 33.2148L33.2153 135.972C32.5995 135.549 31.9908 135.117 31.389 134.676L134.677 31.388C135.118 31.9903 135.55 32.599 135.973 33.2143L135.973 33.2148Z" fill="black"/>
<path d="M139.362 38.6389L38.639 139.362C37.9765 138.986 37.3176 138.605 36.6683 138.21L138.211 36.6677C138.606 37.3171 138.987 37.976 139.362 38.6384L139.362 38.6389Z" fill="black"/>
<path d="M142.336 44.4772L44.4778 142.336C43.7658 142.012 43.0612 141.674 42.3612 141.329L141.33 42.3611C141.675 43.0612 142.013 43.7652 142.336 44.4772H142.336Z" fill="black"/>
<path d="M144.849 50.7784L50.7785 144.849C50.0103 144.582 49.2481 144.304 48.4919 144.013L144.013 48.4918C144.304 49.2485 144.582 50.0107 144.849 50.7784Z" fill="black"/>
<path d="M146.847 57.5936L57.5936 146.847C56.7617 146.646 55.9343 146.433 55.114 146.204L146.205 55.1134C146.433 55.9343 146.646 56.7617 146.847 57.5936H146.847Z" fill="black"/>
<path d="M148.24 65.014L65.014 148.24C64.1064 148.117 63.2038 147.98 62.3072 147.824L147.824 62.3072C147.98 63.2038 148.117 64.1069 148.24 65.014Z" fill="black"/>
<path d="M148.89 73.176L73.176 148.89C72.1757 148.866 71.1808 148.818 70.1904 148.753L148.754 70.1899C148.818 71.1807 148.867 72.1751 148.891 73.1755L148.89 73.176Z" fill="black"/>
<path d="M148.552 82.3269L82.327 148.552C81.2078 148.663 80.0815 148.748 78.9482 148.809L148.809 78.9481C148.749 80.0814 148.663 81.2081 148.552 82.3269Z" fill="black"/>
<path d="M146.705 92.9872L92.9872 146.705C91.6664 147.035 90.3306 147.328 88.9827 147.587L147.587 88.9826C147.329 90.3305 147.036 91.6658 146.705 92.9872Z" fill="black"/>
<path d="M141.769 106.736L106.737 141.769C104.958 142.616 103.139 143.391 101.286 144.097L144.098 101.286C143.392 103.139 142.617 104.958 141.769 106.736Z" fill="black"/>
<path d="M122.95 131.246L131.244 122.952C128.702 125.931 125.929 128.704 122.95 131.246Z" fill="black"/>
<path fill-rule="evenodd" clip-rule="evenodd" d="M90.6338 89.1676H66.1407V87.6046H91.025V88.777C91.025 89.0773 90.9342 89.1676 90.6343 89.1676H90.6338ZM79.1688 79.9179V77.3124C80.5322 77.6765 80.3351 79.0519 79.9265 79.5032C79.598 79.8663 79.5815 79.7198 79.1688 79.9179ZM75.9114 75.7489C76.3682 76.0543 77.4734 76.7367 78.1263 76.7909V79.9179C77.0351 79.8272 76.6405 79.0454 75.9114 78.8754C75.9234 78.3399 76.1315 77.7442 76.1581 77.2944C76.1721 77.0567 75.9806 75.9043 75.9114 75.7489ZM67.5733 74.1854C68.3727 74.1854 68.9127 74.6387 69.9487 75.3272C70.1327 75.45 70.228 75.4992 70.386 75.6717C70.922 76.2579 70.8302 76.7418 70.8302 77.5722L68.9172 76.4885C68.5477 76.2689 68.2954 76.12 67.9394 75.9028C67.619 75.7073 67.2825 75.453 66.922 75.3568C67.0233 74.9762 67.3693 74.4888 67.5733 74.1844V74.1854ZM77.0843 73.6639V73.5335C77.0843 72.6374 77.6695 72.6429 78.2567 72.3606V74.7059C77.8871 74.5103 77.0843 74.1804 77.0843 73.6634V73.6639ZM72.0031 69.3645C72.7197 68.2944 74.9381 67.2288 76.4389 66.8954C78.5304 66.4305 80.6485 66.7906 82.3364 67.4996C83.07 67.808 83.8789 68.3771 84.4801 68.8736C84.8306 69.1634 85.0828 69.3028 85.3682 69.6789C86.6564 71.3738 87.8974 73.0732 87.8974 76.0092C87.8974 84.6014 77.0361 89.2192 70.9992 81.8329C70.5855 81.327 69.8148 80.0699 69.6579 79.3964C70.9506 79.6973 72.315 81.7582 74.8694 80.0478C74.9115 80.5593 74.9556 80.4846 75.2846 80.8055C75.607 81.1204 75.6281 81.1485 76.0362 81.3566C76.5613 81.6243 77.323 81.8721 78.1263 81.8721C78.1353 82.2692 78.1849 82.3469 78.2567 82.6538C79.3177 82.6538 79.2992 82.563 79.2992 81.7412C82.6488 81.7412 83.8177 76.1496 79.2992 75.097V72.3606C80.29 72.4434 80.1947 72.8821 81.514 72.8821C82.7621 71.0178 80.7764 70.5374 79.2992 70.5374C79.2876 70.0174 79.239 70.0545 79.0384 69.7556C78.3745 69.7556 78.1453 69.6864 78.1263 70.5374C76.3767 70.945 75.1296 71.611 75.1296 73.534L73.6785 71.3372C73.36 70.9104 73.1519 70.7595 72.839 70.3528C72.5166 69.9346 72.2483 69.731 72.0031 69.365V69.3645ZM70.3092 68.0617C69.9818 68.0617 66.7961 66.065 66.0836 65.6433C65.2045 65.1233 64.5266 64.4548 65.1905 63.3336C65.2266 63.2724 65.3274 63.1275 65.3484 63.1014C65.7055 62.6627 66.2425 62.6622 67.0518 62.4596L72.9975 60.9688C73.8324 60.7461 73.6619 60.7973 75.2971 62.0313C76.5287 62.9605 76.2504 62.5879 76.9238 64.0647C77.2437 64.7667 77.4082 64.7061 76.478 64.8455C75.9635 64.9227 75.435 65.0556 74.8975 65.224C73.5767 65.6382 72.4158 66.3418 71.3487 67.1476C71.1677 67.2845 70.389 68.0622 70.3087 68.0622L70.3092 68.0617ZM62.8833 64.2833C62.8833 66.5524 65.3865 67.6024 67.45 68.8365C69.7055 70.1859 70.6668 70.6251 72.3396 72.9358C73.0286 73.888 74.8463 76.8962 73.7592 78.2862C73.4453 78.6879 73.2758 78.6147 72.6545 78.6147C73.1023 76.6921 73.0371 75.0454 71.262 73.7536C69.6393 72.5732 67.8757 71.4224 66.2445 72.7257C65.7531 73.1183 65.5219 73.6298 65.2281 74.1849C64.7863 74.0816 64.517 73.8529 64.1114 73.6077L60.7732 71.6044C59.0733 70.6723 56.7532 69.9246 54.7634 68.7552C53.7069 68.1344 52.712 67.1697 52.015 66.1623L49.3242 61.6683L51.1014 58.7554C51.5943 57.937 56.5009 49.9119 56.6293 49.4315L58.9354 49.8612C60.9372 50.1566 63.287 50.284 65.363 50.3386C66.0083 50.3557 66.0108 50.4615 66.6562 50.478C68.7533 50.5342 71.1005 50.3316 72.7317 51.3079C74.2245 52.2015 77.5947 54.8205 79.1477 55.9664C79.4486 56.188 79.6768 56.3249 79.9876 56.5596C82.717 58.62 83.2084 58.4094 83.6362 61.38C83.738 62.085 83.8804 63.0092 83.9822 63.7699C84.0875 64.5551 84.2113 65.5144 84.3798 66.238C83.8784 66.1211 81.847 64.7316 79.2992 64.6745C79.2646 64.2593 78.3615 61.8869 77.6394 61.2536L75.614 59.7608C73.7948 58.3939 74.4015 58.5378 71.8467 59.1771C69.9241 59.6575 68.159 60.1008 66.2184 60.5837C65.185 60.8414 64.3947 60.9949 63.8441 61.7275C63.3612 62.3698 62.8833 63.2258 62.8833 64.2838V64.2833ZM47.1194 61.5474C46.7784 61.3669 43.7321 59.6495 43.7321 59.4629L52.8519 44.22C53.3689 44.566 53.8934 44.8593 54.4711 45.2058C56.6042 46.486 56.4423 45.9219 55.0417 48.2336L47.1194 61.5469V61.5474ZM41.6476 59.4629C41.6476 61.1799 43.5631 61.6969 45.3723 62.9039C47.0196 64.0025 47.153 63.5181 47.9011 63.5016L49.0219 65.2471C51.8139 69.4121 52.1619 70.066 57.6332 72.3992L66.7951 77.5686C67.2279 77.849 67.1832 77.9989 67.2825 78.5144C67.636 80.3492 68.4805 81.9513 69.6172 83.3448C69.9016 83.6938 69.9482 83.7931 70.2746 84.121L71.8727 85.5196C70.2225 85.5196 68.5717 85.5226 66.922 85.5196C64.1675 85.5141 64.0557 86.1484 64.0557 88.9068C64.0557 90.1329 64.7071 91.1217 65.7491 91.1217H91.4151C93.3487 91.1217 92.9786 88.5919 92.9786 87.3433C92.9786 85.3265 91.1353 85.5186 89.982 85.5196C88.3317 85.5211 86.6814 85.5196 85.0312 85.5196C85.3967 85.0211 86.7617 84.4605 88.265 81.9784C90.5215 78.2516 90.4117 73.3199 87.9526 69.7005C86.1228 67.0062 87.0154 69.5962 86.0922 64.1349C85.3471 59.7282 85.9042 58.4616 82.8534 56.1689C82.4678 55.8791 82.198 55.678 81.8119 55.3867L79.6341 53.7861C77.4478 52.1453 74.1107 49.3302 71.6431 48.749C69.8113 48.3178 63.3231 48.3815 61.1348 48.053C59.8822 47.865 59.1024 47.9101 57.8027 47.6073C58.1191 47.009 58.4275 46.5637 58.2053 45.78C57.8754 44.6136 57.0269 44.395 55.5316 43.4939C54.2474 42.7202 53.3428 41.8908 52.1243 42.3175C51.0407 42.6971 49.7926 45.3588 48.9677 46.7202L42.4223 57.6327C42.0192 58.3061 41.6471 58.6982 41.6471 59.4634L41.6476 59.4629Z" fill="#FEFEFE"/>
<path fill-rule="evenodd" clip-rule="evenodd" d="M48.5525 82.5234V103.89C48.5525 104.939 49.2435 105.978 49.95 106.661C50.6761 107.363 51.7422 107.798 53.1126 107.798H103.793C106.311 107.798 108.352 106.008 108.352 103.759V82.6533C108.352 81.2568 107.637 80.3903 106.889 79.6867C106.116 78.9597 104.986 78.6147 103.532 78.6147C101.937 78.6147 92.3979 78.3825 91.6322 78.8318C91.4211 78.9551 91.4973 78.8834 91.3554 79.0755C90.8038 79.8201 91.3048 80.6666 92.3202 80.7062C95.6021 80.8341 100.51 80.627 104.059 80.6931C105.422 80.7182 106.398 81.7061 106.398 83.0439V103.368C106.398 104.649 105.466 105.713 104.183 105.713H52.7215C51.321 105.713 50.5071 104.529 50.5071 103.107V83.3042C50.5071 81.8831 51.2794 80.7954 52.5921 80.6992C54.2304 80.5788 61.8478 80.7037 64.3235 80.7052C65.386 80.7057 65.7501 80.4309 65.7501 79.5263C65.7501 78.9005 64.9563 78.6147 64.3169 78.6147H53.3734C50.6059 78.6147 48.5525 80.4093 48.5525 82.5229V82.5234Z" fill="#FEFEFE"/>
</svg>
