<svg width="150" height="150" viewBox="0 0 150 150" fill="none" xmlns="http://www.w3.org/2000/svg">
<g clip-path="url(#clip0_24_987)">
<path d="M75 148.892C115.809 148.892 148.892 115.809 148.892 75C148.892 34.1908 115.809 1.10831 75 1.10831C34.1907 1.10831 1.10828 34.1908 1.10828 75C1.10828 115.809 34.1907 148.892 75 148.892Z" fill="#292929"/>
<path d="M75 0C95.7095 0 114.46 8.3945 128.034 21.9678C141.605 35.5397 150.001 54.2905 150.001 75.0015C150.001 95.711 141.607 114.462 128.034 128.035C114.462 141.607 95.711 150.003 75 150.003C54.289 150.003 35.5397 141.608 21.9664 128.035C8.39449 114.463 -0.00146484 95.7125 -0.00146484 75.0015C-0.00146484 54.2905 8.39303 35.5412 21.9664 21.9678C35.5383 8.39596 54.289 0 75 0V0ZM126.465 23.5364C113.295 10.3664 95.0978 2.2195 75 2.2195C54.9021 2.2195 36.7063 10.3664 23.5349 23.5364C10.3635 36.7063 2.21804 54.9021 2.21804 75.0015C2.21804 95.0993 10.365 113.295 23.5349 126.467C36.7048 139.638 54.9007 147.783 75 147.783C95.0978 147.783 113.294 139.636 126.465 126.467C139.635 113.297 147.782 95.0993 147.782 75.0015C147.782 54.9036 139.635 36.7077 126.465 23.5364Z" fill="black"/>
<path d="M27.0535 18.7507L18.7478 27.0564C21.2921 24.0738 24.0708 21.2965 27.0535 18.7507Z" fill="black"/>
<path d="M48.7155 5.90118L5.90125 48.7155C6.60613 46.8615 7.38237 45.044 8.22998 43.2643L43.2658 8.22845C45.044 7.38084 46.863 6.60606 48.717 5.89972L48.7155 5.90118Z" fill="black"/>
<path d="M61.0189 2.41173L2.41321 61.0174C2.67098 59.6688 2.96517 58.3333 3.29577 57.0124L57.0153 3.29284C58.3362 2.96224 59.6717 2.66951 61.0203 2.41028L61.0189 2.41173Z" fill="black"/>
<path d="M71.0532 1.19128L1.19128 71.0532C1.251 69.9202 1.33692 68.7944 1.4476 67.6744L67.6744 1.4476C68.7929 1.33692 69.9202 1.251 71.0532 1.19128Z" fill="black"/>
<path d="M79.8118 1.24664L1.24664 79.8118C1.18256 78.8215 1.13596 77.8253 1.10974 76.8263L76.8263 1.10974C77.8268 1.13596 78.8215 1.18256 79.8118 1.24664Z" fill="black"/>
<path d="M87.6937 2.17581L2.1758 87.6937C2.01997 86.7966 1.88307 85.8951 1.75928 84.9877L84.9863 1.76074C85.8936 1.88308 86.7966 2.02143 87.6922 2.17726L87.6937 2.17581Z" fill="black"/>
<path d="M94.8867 3.79527L3.79533 94.8867C3.56668 94.0667 3.35405 93.2381 3.15308 92.4065L92.4065 3.15302C93.2381 3.35399 94.0668 3.56662 94.8867 3.79527Z" fill="black"/>
<path d="M101.509 5.98711L5.98708 101.509C5.6958 100.753 5.41764 99.9898 5.15112 99.2223L99.2223 5.15115C99.9898 5.41767 100.753 5.69584 101.509 5.98711Z" fill="black"/>
<path d="M107.64 8.66974L8.67114 107.639C8.32599 106.938 7.98811 106.235 7.66479 105.523L105.524 7.66339C106.236 7.9867 106.94 8.32458 107.64 8.66974Z" fill="black"/>
<path d="M113.333 11.7893L11.7908 113.332C11.3961 112.682 11.0145 112.024 10.6388 111.361L111.363 10.6373C112.025 11.013 112.684 11.3946 113.333 11.7893Z" fill="black"/>
<path d="M118.612 15.3239L15.3239 118.612C14.8826 118.011 14.4501 117.402 14.0277 116.786L116.786 14.0277C117.402 14.4501 118.009 14.8826 118.612 15.3239Z" fill="black"/>
<path d="M123.513 19.2357L19.2357 123.513C18.7507 122.957 18.2745 122.392 17.8055 121.819L121.819 17.8055C122.392 18.2745 122.955 18.7507 123.513 19.2357Z" fill="black"/>
<path d="M128.038 23.5247L23.5262 128.037C22.9975 127.524 22.4776 127.004 21.965 126.475L126.477 21.9635C127.005 22.4761 127.525 22.996 128.038 23.5247Z" fill="black"/>
<path d="M132.194 28.1807L28.1807 132.194C27.6083 131.727 27.0447 131.249 26.4869 130.764L130.764 26.4869C131.249 27.0433 131.725 27.6083 132.194 28.1807Z" fill="black"/>
<path d="M135.974 33.2154L33.2153 135.974C32.5993 135.551 31.9905 135.119 31.389 134.678L134.678 31.3891C135.119 31.9905 135.551 32.5993 135.974 33.2154Z" fill="black"/>
<path d="M139.363 38.6389L38.6389 139.363C37.9763 138.987 37.318 138.605 36.6685 138.211L138.211 36.6684C138.605 37.3179 138.987 37.9762 139.363 38.6389Z" fill="black"/>
<path d="M142.337 44.4774L44.4774 142.337C43.7653 142.013 43.0604 141.675 42.3613 141.33L141.33 42.3613C141.675 43.0618 142.013 43.7653 142.337 44.4774Z" fill="black"/>
<path d="M144.849 50.7792L50.7777 144.85C50.0102 144.584 49.2471 144.306 48.4912 144.014L144.013 48.4927C144.304 49.2485 144.582 50.0117 144.849 50.7792Z" fill="black"/>
<path d="M146.847 57.5935L57.5935 146.847C56.7619 146.646 55.9347 146.433 55.1133 146.203L146.205 55.1118C146.433 55.9318 146.646 56.7604 146.847 57.592V57.5935Z" fill="black"/>
<path d="M148.241 65.0137L65.0137 148.241C64.1063 148.118 63.2034 147.98 62.3063 147.826L147.824 62.3077C147.98 63.2049 148.117 64.1078 148.239 65.0151L148.241 65.0137Z" fill="black"/>
<path d="M148.892 73.1766L73.1766 148.892C72.1761 148.868 71.1814 148.819 70.191 148.755L148.755 70.191C148.819 71.1814 148.868 72.1761 148.892 73.1766Z" fill="black"/>
<path d="M148.552 82.327L82.327 148.552C81.2071 148.663 80.0813 148.749 78.9482 148.809L148.809 78.9482C148.749 80.0813 148.663 81.2085 148.552 82.327Z" fill="black"/>
<path d="M146.706 92.9876L92.9876 146.706C91.6666 147.036 90.3311 147.329 88.9825 147.588L147.587 88.984C147.329 90.3311 147.035 91.6666 146.704 92.989L146.706 92.9876Z" fill="black"/>
<path d="M141.77 106.737L106.737 141.77C104.959 142.618 103.14 143.392 101.286 144.099L144.097 101.287C143.393 103.141 142.616 104.959 141.769 106.739L141.77 106.737Z" fill="black"/>
<path d="M122.951 131.246L131.245 122.952C128.704 125.931 125.929 128.705 122.951 131.246Z" fill="black"/>
<path fill-rule="evenodd" clip-rule="evenodd" d="M89.8913 93.1187L91.339 93.3561L91.4482 95.6586H86.798V95.1751C86.7995 93.5876 86.8009 93.1434 88.6432 93.1434L89.8535 93.1128L89.8928 93.1187H89.8913ZM102.036 75.5214H106.23V95.66H101.601V75.5214H102.036ZM99.9213 95.66H92.6715V95.2246C92.6715 93.7114 92.3861 92.8755 91.8269 92.4385C91.253 91.9885 90.3326 91.8953 89.1107 91.8939C87.8029 91.8924 86.8941 92.073 86.3393 92.5667C85.7946 93.0531 85.5499 93.892 85.5514 95.2246V95.66H78.1035V89.1501H100.357V95.66H99.9213ZM78.539 85.1553H80.6187V87.9049H78.1035V85.1553H78.539ZM82.2993 85.1553H84.6149V87.9049H81.8653V85.1553H82.3008H82.2993ZM86.2941 85.1553H88.6097V87.9049H85.8601V85.1553H86.2956H86.2941ZM90.2889 85.1553H92.3686V87.9049H89.8535V85.1553H90.2889ZM94.0478 85.1553H96.362V87.9049H93.6124V85.1553H94.0478ZM98.0426 85.1553H100.358V87.9049H97.6086V85.1553H98.0441H98.0426ZM99.9228 83.9115H77.9885L78.1181 83.3741C78.6526 81.1677 80.3099 81.258 82.1522 81.357C82.5003 81.376 82.8571 81.3949 83.2387 81.3949H95.4576C95.9396 81.3949 96.3372 81.3745 96.6897 81.3556C98.4344 81.2638 99.282 81.2187 100.312 83.2824L100.625 83.9115H99.9213H99.9228ZM103.8 69.5503C106.383 69.5503 108.99 69.642 109.539 69.8255L109.743 69.894L109.813 70.0964C109.972 70.561 109.964 71.0824 109.863 71.5965C109.739 72.2198 109.472 72.8417 109.21 73.3237C108.626 74.3942 107.624 74.3476 106.58 74.298C106.391 74.2893 106.198 74.2791 106.032 74.2791C105.571 74.2762 104.987 74.2995 104.355 74.3228C102.455 74.3971 100.134 74.4874 98.8728 73.9471L98.7635 73.9004L98.6922 73.8029C98.3412 73.3223 97.9887 72.6043 97.8038 71.8834C97.6465 71.2659 97.6072 70.6294 97.7849 70.1008L97.8533 69.8954L98.0586 69.827C98.6092 69.6435 101.215 69.5517 103.798 69.5517L103.8 69.5503ZM105.796 68.4041H101.595L101.603 67.9614C101.621 67.0745 102.024 66.3943 102.592 65.9982C102.895 65.7856 103.245 65.656 103.606 65.6181C103.97 65.5802 104.344 65.6356 104.698 65.7958C105.365 66.0958 105.952 66.7628 106.219 67.8682L106.348 68.4041H105.798H105.796ZM106.663 65.8118C106.287 65.2642 105.718 64.8637 104.755 64.6307L104.422 64.5491V64.2083L104.429 63.7073C104.442 62.8568 104.446 62.5714 103.476 62.532L103.462 62.5612C103.297 62.8772 103.22 63.0301 103.192 63.1568C103.166 63.2748 103.168 63.435 103.172 63.7408L103.176 64.5491L102.844 64.6292C102.069 64.8171 101.453 65.2292 101.031 65.7914C100.594 66.3739 100.357 67.1254 100.357 67.9672V68.4027L99.6228 68.3997C98.5829 68.3939 97.7849 68.3896 97.1164 69.125C96.7931 69.4789 96.5775 69.8852 96.4799 70.312C96.3809 70.7387 96.3969 71.1901 96.5324 71.6358L96.5367 71.6445C97.2766 74.0636 97.5445 74.9359 100.025 75.533L100.36 75.6131V80.7352L99.8223 80.6056C98.9878 80.4031 98.6164 80.2793 98.3922 80.2051C98.2713 80.1643 98.2057 80.1424 98.13 80.1337C98.0193 80.122 97.8518 80.125 97.4994 80.1308C97.096 80.1381 96.4829 80.1483 95.695 80.1483H82.3022C82.0488 80.1483 81.7473 80.1366 81.4517 80.125C80.422 80.0856 79.4681 80.0507 78.6453 80.6259C78.271 80.8881 77.8253 81.309 77.4671 81.7808C77.1947 82.1406 76.9821 82.5192 76.9064 82.8615L76.9442 96.0081C77.253 96.9664 78.3016 96.9373 79.2686 96.9125L79.7142 96.9038L106.367 96.9023C107.561 96.0605 107.534 95.111 107.496 93.7449C107.489 93.474 107.48 93.1857 107.48 92.8711L107.478 75.6088L107.813 75.5301C108.795 75.2971 109.493 74.8485 110.007 74.2252C110.537 73.5815 110.889 72.7397 111.16 71.7479C111.304 71.2236 111.331 70.7299 111.223 70.277C111.122 69.8532 110.899 69.4585 110.54 69.0988C109.809 68.3692 109.309 68.3779 108.409 68.3925L107.914 68.3997H107.573L107.493 68.0648C107.273 67.1531 107.063 66.3856 106.667 65.8074L106.663 65.8118Z" fill="#FEFEFE"/>
<path fill-rule="evenodd" clip-rule="evenodd" d="M63.2587 86.2518C62.3412 87.0208 61.1237 88.0403 60.4217 88.2704C60.3882 88.2835 60.3533 88.2937 60.3169 88.298C57.2876 88.6782 53.855 82.9546 51.8568 79.6239C51.5175 79.0574 51.2204 78.5608 50.9714 78.1748C47.0566 72.0858 47.8329 70.0964 49.5601 68.9852C50.0014 68.7012 50.4893 68.4914 50.9728 68.2832C51.7462 67.9511 52.5107 67.622 52.8909 67.0511C52.9855 66.4656 50.7078 63.017 49.6504 61.415C49.4524 61.1135 49.2951 60.8761 49.1888 60.7072C48.6208 59.8057 48.197 59.0105 47.8475 58.3522C47.4936 57.6881 47.2154 57.1667 46.9474 56.8361C46.3896 56.1487 45.6979 56.408 43.589 58.1177L43.1579 58.5357C41.6899 59.9586 40.9006 61.6727 40.5656 63.5121C40.2277 65.3763 40.3544 67.3759 40.7214 69.3361C41.7293 74.7247 44.6566 80.9856 48.6135 86.3756C52.2719 91.3593 56.8041 95.5901 61.4965 97.68C65.3384 99.0737 66.8603 98.2902 70.3804 96.4741L70.6076 96.3532C70.8653 96.1974 71.0561 95.9585 71.1493 95.7022C71.2367 95.4619 71.2396 95.2071 71.1289 94.993L71.1027 94.9464C70.0789 93.2643 68.9648 91.5297 67.8667 89.8199L66.5443 87.7519C66.3841 87.5 66.2428 87.2495 66.1001 86.9975C65.8948 86.6363 65.6894 86.2722 65.4797 85.9853C65.101 85.4654 64.6656 85.1654 64.0568 85.5965L64.0452 85.6052C63.8544 85.7523 63.5748 85.9868 63.2587 86.2504V86.2518ZM44.6886 55.2254C47.2678 53.9118 48.1227 55.4526 49.1844 57.3663C49.3373 57.6415 49.4961 57.927 49.6635 58.2095C49.8296 58.4877 50.1281 58.961 50.4951 59.5464C51.9894 61.9218 54.6254 66.1103 54.5875 67.0933C54.5322 68.5002 53.3452 68.9983 52.1073 69.5182C50.6349 70.1357 49.0737 70.7925 50.2592 73.5348C51.4243 76.0529 53.5404 79.2307 55.2545 81.8056L55.923 82.8119C56.3031 83.3857 57.1114 84.3629 57.6474 85.0096L57.7959 85.1887C57.9168 85.3038 58.0245 85.413 58.1352 85.5251C58.5037 85.895 58.9304 86.3247 59.2057 86.4514C60.1683 86.7834 60.3212 86.6378 60.9329 86.0567C61.1659 85.8353 61.4514 85.563 61.83 85.2455L62.0092 85.0969C62.4475 84.7285 62.8611 84.3819 63.2748 84.1154C64.5185 83.3114 65.6457 83.2168 66.9273 85.1974L68.0677 86.9553C69.5634 89.2563 71.1479 91.6928 72.4979 93.9619C72.5504 94.0478 72.5984 94.1381 72.6421 94.2298C72.9858 94.9464 73.0018 95.6658 72.7615 96.3095C72.5271 96.9387 72.0465 97.4863 71.3896 97.8766L71.3605 97.8926C71.2556 97.9538 71.1566 98.0076 71.0649 98.0513C70.5653 98.2902 70.2799 98.43 70.0163 98.5581C67.2492 99.914 65.8482 100.6 62.3369 99.697L62.3077 99.6883C57.6095 98.1023 53.3627 94.7468 49.799 90.637C45.542 85.7261 42.2535 79.7288 40.3399 74.3956C39.1486 71.0736 38.4612 67.7545 38.8005 64.6379C39.1442 61.4878 40.5278 58.5561 43.4784 56.0512L44.6187 55.2647C44.6405 55.2502 44.6624 55.237 44.6857 55.2269L44.6886 55.2254Z" fill="#FEFEFE" stroke="#FEFEFE" stroke-width="0.200093" stroke-miterlimit="22.9256"/>
<path d="M58.3057 49.8995C58.3057 49.8995 83.6217 49.266 86.115 77.4787" stroke="#FEFEFE" stroke-width="0.881893" stroke-miterlimit="22.9256" stroke-linecap="round" stroke-linejoin="round"/>
<path d="M58.9814 59.4824C58.9814 59.4824 74.6316 59.0906 76.1724 76.532" stroke="#FEFEFE" stroke-width="0.881893" stroke-miterlimit="22.9256" stroke-linecap="round" stroke-linejoin="round"/>
<path d="M58.9814 68.0065C58.9814 68.0065 66.8065 67.8099 67.5769 76.5306" stroke="#FEFEFE" stroke-width="0.881893" stroke-miterlimit="22.9256" stroke-linecap="round" stroke-linejoin="round"/>
</g>
<defs>
<clipPath id="clip0_24_987">
<rect width="150" height="150" fill="white"/>
</clipPath>
</defs>
</svg>
