<svg width="150" height="150" viewBox="0 0 150 150" fill="none" xmlns="http://www.w3.org/2000/svg">
<path d="M74.9985 148.888C115.807 148.888 148.888 115.807 148.888 74.9985C148.888 34.1905 115.807 1.10901 74.9985 1.10901C34.1905 1.10901 1.10902 34.1905 1.10902 74.9985C1.10902 115.807 34.1905 148.888 74.9985 148.888Z" fill="#292929"/>
<path d="M74.9985 0C95.7071 0 114.459 8.39607 128.031 21.9657C141.604 35.5382 149.997 54.2871 149.997 74.9985C149.997 95.7071 141.601 114.459 128.031 128.031C114.459 141.604 95.71 149.997 74.9985 149.997C54.2871 149.997 35.5382 141.601 21.9657 128.031C8.39317 114.459 0 95.71 0 74.9985C0 54.2871 8.39607 35.5382 21.9657 21.9657C35.5382 8.39317 54.2871 0 74.9985 0V0ZM126.464 23.5363C113.295 10.3674 95.0974 2.21805 74.9985 2.21805C54.8996 2.21805 36.7052 10.3644 23.5334 23.5363C10.3615 36.7052 2.21515 54.9025 2.21515 75.0014C2.21515 95.1003 10.3615 113.295 23.5334 126.467C36.7023 139.638 54.8996 147.785 74.9985 147.785C95.0974 147.785 113.292 139.638 126.464 126.467C139.633 113.298 147.782 95.1003 147.782 75.0014C147.782 54.9025 139.636 36.7081 126.464 23.5363Z" fill="black"/>
<path d="M27.055 18.7489L18.7489 27.055C21.2921 24.0734 24.0705 21.295 27.055 18.7489Z" fill="black"/>
<path d="M48.7158 5.90219L5.90222 48.7158C6.6077 46.8635 7.38286 45.0432 8.23059 43.2665L43.2665 8.23056C45.0462 7.38283 46.8636 6.60767 48.7158 5.90219Z" fill="black"/>
<path d="M61.0167 2.41254L2.40967 61.0196C2.66805 59.6725 2.96128 58.337 3.29224 57.0161L57.0103 3.29801C58.3312 2.96705 59.6667 2.67383 61.0138 2.41544L61.0167 2.41254Z" fill="black"/>
<path d="M71.0531 1.19031L1.19322 71.0502C1.25129 69.9179 1.33838 68.7915 1.4487 67.6709L67.6767 1.44289C68.7944 1.33257 69.9208 1.24547 71.056 1.18741L71.0531 1.19031Z" fill="black"/>
<path d="M79.8092 1.24546L1.24547 79.8091C1.1816 78.8192 1.13515 77.8234 1.10902 76.8247L76.8247 1.10901C77.8234 1.13514 78.8192 1.18159 79.8092 1.24546Z" fill="black"/>
<path d="M87.6943 2.1745L2.17741 87.6914C2.02064 86.7943 1.88419 85.8914 1.76225 84.9856L84.9885 1.75934C85.8972 1.88127 86.7972 2.02063 87.6943 2.1745Z" fill="black"/>
<path d="M94.8855 3.79447L3.79449 94.8855C3.56513 94.0639 3.3532 93.2365 3.15288 92.4062L92.4062 3.15286C93.2365 3.35318 94.0668 3.56802 94.8855 3.79447Z" fill="black"/>
<path d="M101.508 5.98639L5.98641 101.508C5.69609 100.753 5.41738 99.9893 5.15028 99.22L99.22 5.15027C99.9865 5.41736 100.75 5.69607 101.508 5.98639Z" fill="black"/>
<path d="M107.639 8.66897L8.67187 107.636C8.32639 106.937 7.98962 106.231 7.66446 105.52L105.523 7.66156C106.234 7.98382 106.94 8.32349 107.639 8.66897Z" fill="black"/>
<path d="M113.332 11.7899L11.7899 113.332C11.3951 112.682 11.0119 112.023 10.6373 111.361L111.361 10.6373C112.023 11.0118 112.682 11.3951 113.332 11.7899Z" fill="black"/>
<path d="M118.611 15.3231L15.3231 118.611C14.8818 118.01 14.4493 117.4 14.0283 116.784L116.784 14.0283C117.4 14.4522 118.01 14.8847 118.611 15.3231Z" fill="black"/>
<path d="M123.511 19.2366L19.2338 123.514C18.7489 122.957 18.2728 122.393 17.8054 121.821L121.819 17.8083C122.391 18.2757 122.954 18.7518 123.511 19.2366Z" fill="black"/>
<path d="M128.037 23.5247L23.5276 128.034C22.9992 127.52 22.4795 127.001 21.9657 126.472L126.475 21.9627C127.004 22.4766 127.523 22.9963 128.037 23.5247Z" fill="black"/>
<path d="M132.195 28.1814L28.1814 132.195C27.6095 131.727 27.0463 131.251 26.4889 130.766L130.766 26.4888C131.251 27.0462 131.727 27.6095 132.195 28.1814Z" fill="black"/>
<path d="M135.972 33.2156L33.2156 135.972C32.6001 135.548 31.9904 135.118 31.3895 134.677L134.677 31.3895C135.118 31.9904 135.551 32.6001 135.972 33.2156Z" fill="black"/>
<path d="M139.36 38.6388L38.6388 139.36C37.9769 138.985 37.3178 138.602 36.6675 138.207L138.21 36.6646C138.605 37.3149 138.985 37.974 139.363 38.6359L139.36 38.6388Z" fill="black"/>
<path d="M142.336 44.4771L44.4771 142.335C43.7658 142.013 43.0604 141.674 42.3607 141.328L141.328 42.3607C141.674 43.0603 142.01 43.7658 142.336 44.4771Z" fill="black"/>
<path d="M144.847 50.7771L50.7771 144.847C50.0078 144.58 49.2471 144.301 48.4894 144.011L144.011 48.4894C144.301 49.2471 144.58 50.0078 144.847 50.7771Z" fill="black"/>
<path d="M146.847 57.5938L57.5938 146.847C56.7606 146.647 55.9332 146.432 55.1145 146.205L146.206 55.1144C146.435 55.936 146.647 56.7635 146.847 57.5938Z" fill="black"/>
<path d="M148.238 65.0144L65.0115 148.241C64.1028 148.119 63.1999 147.979 62.3057 147.825L147.823 62.3086C147.979 63.2057 148.116 64.1086 148.238 65.0144Z" fill="black"/>
<path d="M148.888 73.1753L73.1754 148.888C72.1737 148.865 71.1809 148.815 70.1909 148.752L148.755 70.1879C148.818 71.1779 148.868 72.1737 148.891 73.1724L148.888 73.1753Z" fill="black"/>
<path d="M148.551 82.3262L82.3262 148.551C81.2056 148.662 80.0792 148.749 78.9469 148.807L148.807 78.9469C148.746 80.0792 148.662 81.2056 148.551 82.3262Z" fill="black"/>
<path d="M146.705 92.9868L92.9868 146.705C91.6658 147.036 90.3304 147.329 88.9833 147.587L147.587 88.9833C147.329 90.3304 147.036 91.6658 146.705 92.9868Z" fill="black"/>
<path d="M141.769 106.736L106.736 141.769C104.957 142.617 103.139 143.392 101.284 144.098L144.095 101.287C143.389 103.139 142.614 104.96 141.766 106.736H141.769Z" fill="black"/>
<path d="M122.948 131.245L131.242 122.951C128.699 125.929 125.927 128.702 122.948 131.245Z" fill="black"/>
<path fill-rule="evenodd" clip-rule="evenodd" d="M54.5164 91.5468L54.6442 91.2245C54.7835 90.8733 59.4954 88.8439 59.8816 88.7626C60.1399 88.9571 60.137 89.2387 60.2358 89.5175C61.0399 91.811 61.8093 94.6706 62.5612 97.0542L63.5715 100.407C63.6761 100.747 64.0593 101.853 64.0244 102.132C62.8051 102.393 59.1906 104.382 58.5287 104.118C57.89 103.862 57.5648 103.322 57.4313 102.829C57.3587 102.556 57.2977 102.245 57.3006 101.978C57.3209 100.944 57.5474 101.351 56.8942 100.393C56.7984 100.254 56.7722 100.204 56.6938 100.053C56.4964 99.6671 56.3716 99.2403 56.3861 98.799C56.3977 98.4768 56.4674 98.2155 56.4209 97.8787C56.3803 97.5942 56.2584 97.4606 56.09 97.1674C55.8345 96.7232 55.5674 96.1048 55.5877 95.5706C55.5993 95.2484 55.6574 94.9813 55.5151 94.6939C55.3264 94.3194 55.0129 94.2265 54.6558 93.3032C54.5077 92.92 54.319 92.0461 54.5164 91.5497V91.5468ZM58.1454 106.205L57.9277 106.118C56.9784 105.738 56.5545 105.534 55.8316 104.53C54.9084 103.247 55.3206 102.521 54.6703 101.029C53.8893 99.2316 54.4003 99.1242 53.6687 97.4577C53.3058 96.6274 53.4277 96.3923 53.2332 95.6693C53.0648 95.0365 53.0503 95.2281 52.8529 94.8187C52.7106 94.5197 52.6061 94.2671 52.5219 93.9478C52.4058 93.5036 52.0952 92.5919 52.2897 92.0752C50.9484 92.3626 49.8742 93.3497 48.0423 92.6181C46.6226 92.052 46.1871 92.0113 45.3539 90.7862C44.8807 90.0894 43.3042 86.3326 43.0662 85.5255C42.6191 84.0101 42.7991 83.5049 43.3855 82.0272C44.0417 80.3811 45.7836 79.8556 47.2091 79.1327L57.7361 74.4527L59.7103 73.2101C64.1057 69.9266 66.9538 66.1612 69.6363 61.2896C69.886 60.8367 70.1183 60.378 70.368 60.0122C70.545 59.7509 70.5683 59.6667 70.8092 59.5476C71.3231 59.2922 71.927 59.2457 72.5396 59.2312C73.4715 59.208 74.6415 59.6986 75.2628 60.3896C75.8231 61.0109 76.694 62.8747 77.0366 63.6818C77.324 64.3525 78.8163 67.9495 79.0311 68.266C81.5569 67.3834 84.8782 69.1602 84.9304 72.1882C84.9392 72.6469 84.7475 73.3959 84.5182 73.965C83.8388 75.6663 83.0492 75.6053 82.5121 76.3746L84.3411 80.8165C84.9246 82.1723 85.9814 84.1407 85.4037 85.5894C84.9769 86.6578 84.9914 86.8233 84.0914 87.6304C83.6733 88.002 83.415 88.2255 82.8575 88.2342C82.1521 88.243 80.4914 87.7117 79.6089 87.4997C76.6418 86.7943 73.9186 86.4168 71.0067 86.3501C70.8063 86.3442 70.5421 86.3326 70.307 86.3355C68.0396 86.3791 66.9189 86.5301 64.7212 86.9946C64.2248 87.0991 63.8444 87.2065 63.3712 87.3313L62.1315 87.7959C62.1664 87.9613 62.2157 88.0717 62.2738 88.2691C62.329 88.4549 62.3638 88.5652 62.4161 88.7423L64.9041 97.0629C65.1015 97.7016 65.2583 98.2793 65.4499 98.9093C65.8709 100.303 66.4515 101.659 65.9783 102.843C65.5167 103.996 64.8431 104.051 64.2886 104.376C63.377 104.916 62.1054 105.276 61.3477 105.601C61.0225 105.741 60.6828 105.918 60.3548 106.025C59.4519 106.321 59.1151 106.597 58.1396 106.208L58.1454 106.205ZM82.7298 85.9378L77.7131 84.8114C75.286 84.3643 73.0041 84.0885 70.6292 84.0914C69.7438 84.0914 68.1557 84.1233 67.2847 84.251L64.1057 84.7997C63.3741 84.9536 61.937 85.4472 61.1648 85.781C60.8135 85.932 60.5261 86.0568 60.1748 86.2078C59.1703 86.6404 55.9129 88.1065 54.949 88.452C54.7371 88.5275 54.6558 88.5246 54.4322 88.6175C53.7645 88.8991 53.1635 89.1633 52.4958 89.4507C52.159 89.5958 51.8861 89.712 51.5494 89.8571L49.5723 90.5974C49.0439 90.7542 48.1294 90.4058 47.6271 90.0197C47.3455 89.802 47.3891 89.7584 47.2381 89.4942C46.942 88.9775 45.7633 86.1381 45.4091 85.3194L45.0258 84.0972C45.0346 83.6994 45.3481 82.9185 45.5862 82.5614C45.7923 82.2536 47.0145 81.7775 47.3716 81.6236L49.7407 80.5523C50.5739 80.1953 51.3403 79.8643 52.1735 79.5072L56.3426 77.6637C58.4938 76.575 59.3561 76.3079 61.5103 74.6646C65.476 71.6395 68.4199 67.8944 70.9631 63.5105C71.6425 62.3376 72.0605 61.1531 72.9924 61.5247C74.0753 61.9573 74.4586 63.3886 74.8128 64.2102L82.9969 83.473C83.5021 85.2033 83.4817 84.852 82.7298 85.9349V85.9378ZM80.053 70.3882C80.7237 69.9295 81.8095 70.1966 82.2943 71.0792C83.0898 72.5221 82.8372 73.2247 81.7659 74.1334C81.5105 74.0056 81.5163 73.9534 81.4118 73.753L80.1518 70.934C80.0153 70.5944 80.0763 70.606 80.053 70.3882Z" fill="#FEFEFE"/>
<path fill-rule="evenodd" clip-rule="evenodd" d="M84.6779 43.6497C84.1843 43.4523 83.4846 43.8878 83.3453 44.4336C83.0637 45.5484 84.344 45.7081 85.2091 46.1958L88.0543 47.5342C88.6465 47.7984 89.2359 48.1642 89.7933 48.4952C91.2855 49.3835 92.9926 50.6319 94.212 51.7177C95.4284 52.8006 96.7581 54.0403 97.7394 55.3235C98.8542 56.7809 99.5074 57.5357 100.512 59.2544L101.993 62.0328C104.623 67.8479 105.5 73.3118 104.652 79.6698C104.295 82.3524 103.488 84.884 102.512 87.4185C102.222 88.1704 101.813 89.4275 103.049 89.6597C103.369 89.7207 103.598 89.6423 103.856 89.5407C104.036 89.471 104.155 89.3781 104.243 89.262L104.469 88.693C104.53 88.4578 104.597 88.1791 104.727 87.8539C106.034 84.6227 106.914 80.8862 107.125 77.4343C107.146 77.1005 107.134 76.8624 107.152 76.5692C107.265 74.6647 107.035 71.715 106.742 69.9179C106.188 66.527 105.334 63.9431 103.949 60.8744C103.827 60.6044 103.72 60.4651 103.595 60.1719C103.52 59.9919 103.508 59.9948 103.409 59.8264L102.443 58.1077C101.879 57.1845 101.348 56.3338 100.677 55.4512C99.9952 54.5542 99.3855 53.7848 98.619 52.9196C98.2358 52.4871 97.87 52.13 97.4607 51.709C95.2949 49.4881 92.2494 47.1713 89.4391 45.7661C88.333 45.2145 87.8249 44.9039 86.5533 44.3958L84.6807 43.6468L84.6779 43.6497Z" fill="#FEFEFE"/>
<path fill-rule="evenodd" clip-rule="evenodd" d="M92.5368 85.2991C93.0652 85.5081 93.2104 85.5865 93.8055 85.2759C94.2846 85.0262 94.4588 84.4078 94.6852 83.8446C97.3475 77.173 96.5287 70.9369 94.5197 66.257C92.0404 60.4854 87.5375 56.4354 81.3769 53.9764C80.4711 53.6135 79.6088 53.808 79.4608 54.8502C79.3214 55.8344 80.2446 55.727 81.4175 56.4122C81.6759 56.5631 83.2814 57.2541 84.0333 57.6896C85.543 58.5605 86.8756 59.5331 88.0775 60.7525C89.4188 62.1141 90.5888 63.5802 91.5149 65.2495C92.2262 66.5328 92.8184 67.9147 93.2539 69.3024C94.3833 72.9053 94.4355 76.3166 93.5617 80.0007C93.3439 80.9123 92.9926 81.8617 92.6297 82.8023C92.502 83.1362 92.5397 83.1797 92.441 83.4701C92.3452 83.7546 92.2291 83.9317 92.1797 84.222C92.1043 84.6691 92.2581 85.1888 92.531 85.2991H92.5368Z" fill="#FEFEFE"/>
</svg>
