<svg width="150" height="150" viewBox="0 0 150 150" fill="none" xmlns="http://www.w3.org/2000/svg">
<path d="M75.0002 148.891C115.809 148.891 148.891 115.809 148.891 75.0002C148.891 34.1916 115.809 1.10965 75.0002 1.10965C34.1916 1.10965 1.10968 34.1916 1.10968 75.0002C1.10968 115.809 34.1916 148.891 75.0002 148.891Z" fill="#292929"/>
<path d="M75.0002 0C95.7102 0 114.461 8.39472 128.033 21.9674C141.605 35.5396 150 54.2898 150 75.0002C150 95.7102 141.606 114.461 128.033 128.033C114.461 141.605 95.7102 150 75.0002 150C54.2898 150 35.5396 141.606 21.9674 128.033C8.39518 114.461 0 95.7102 0 75.0002C0 54.2898 8.39472 35.5396 21.9674 21.9674C35.5396 8.39518 54.2898 0 75.0002 0V0ZM126.465 23.5356C113.294 10.3651 95.0983 2.2184 75.0002 2.2184C54.9021 2.2184 36.7061 10.3647 23.5356 23.5356C10.3647 36.7061 2.2184 54.9016 2.2184 75.0002C2.2184 95.0983 10.3651 113.294 23.5356 126.465C36.7061 139.636 54.9016 147.782 75.0002 147.782C95.0983 147.782 113.294 139.635 126.465 126.465C139.635 113.294 147.782 95.0983 147.782 75.0002C147.782 54.9021 139.636 36.7061 126.465 23.5356Z" fill="black"/>
<path d="M27.0539 18.7502L18.7488 27.0553C21.2937 24.0722 24.0713 21.2955 27.0539 18.7502Z" fill="black"/>
<path d="M48.7156 5.90201L5.90155 48.7161C6.60669 46.8629 7.38295 45.044 8.22939 43.2657L43.2647 8.23031C45.0431 7.3834 46.862 6.60761 48.7151 5.90247L48.7156 5.90201Z" fill="black"/>
<path d="M61.0184 2.41235L2.41235 61.0184C2.67049 59.6705 2.96418 58.3345 3.29436 57.0138L57.0138 3.29436C58.335 2.96372 59.6705 2.67049 61.0184 2.41235Z" fill="black"/>
<path d="M71.0524 1.19092L1.19092 71.0524C1.25049 69.9192 1.33684 68.7929 1.44674 67.674L67.674 1.44674C68.7929 1.33684 69.9192 1.25049 71.0524 1.19092Z" fill="black"/>
<path d="M79.8111 1.24588L1.24588 79.8111C1.18169 78.8205 1.13505 77.8249 1.10919 76.8252L76.8252 1.10919C77.8249 1.13505 78.8205 1.18215 79.8111 1.24588Z" fill="black"/>
<path d="M87.6937 2.17592L2.17589 87.6937C2.02073 86.7969 1.88266 85.8946 1.75983 84.9872L84.9867 1.76031C85.8941 1.88315 86.7964 2.02076 87.6932 2.17638L87.6937 2.17592Z" fill="black"/>
<path d="M94.8868 3.79585L3.79581 94.8868C3.56677 94.0663 3.35389 93.2387 3.15302 92.4066L92.4066 3.15305C93.2382 3.35392 94.0662 3.5668 94.8868 3.79585Z" fill="black"/>
<path d="M101.508 5.98698L5.98698 101.508C5.69606 100.752 5.41714 99.99 5.1507 99.2216L99.2216 5.1507C99.9895 5.41714 100.752 5.69606 101.508 5.98698Z" fill="black"/>
<path d="M107.639 8.66995L8.66992 107.639C8.32497 106.939 7.98741 106.235 7.6637 105.523L105.523 7.66373C106.235 7.98744 106.939 8.325 107.638 8.67041L107.639 8.66995Z" fill="black"/>
<path d="M113.332 11.7897L11.7897 113.332C11.3949 112.683 11.013 112.024 10.6381 111.361L111.361 10.6381C112.024 11.013 112.683 11.3949 113.332 11.7897Z" fill="black"/>
<path d="M118.612 15.3237L15.3237 118.612C14.8827 118.01 14.4501 117.401 14.0275 116.785L116.785 14.0275C117.401 14.4501 118.01 14.8827 118.612 15.3237Z" fill="black"/>
<path d="M123.513 19.2359L19.2355 123.513C18.7507 122.956 18.2741 122.391 17.8058 121.82L121.819 17.8063C122.391 18.275 122.956 18.7511 123.513 19.2359Z" fill="black"/>
<path d="M128.037 23.5255L23.525 128.037C22.9962 127.524 22.4763 127.004 21.9637 126.476L126.475 21.9642C127.004 22.4772 127.524 22.9972 128.037 23.5255Z" fill="black"/>
<path d="M132.194 28.1802L28.1807 132.194C27.609 131.725 27.0442 131.249 26.4873 130.764L130.764 26.4868C131.25 27.0438 131.726 27.6085 132.194 28.1802Z" fill="black"/>
<path d="M135.972 33.215L33.215 135.972C32.5995 135.55 31.9908 135.118 31.3887 134.677L134.677 31.3887C135.118 31.9908 135.55 32.5995 135.972 33.215Z" fill="black"/>
<path d="M139.362 38.6391L38.6386 139.362C37.976 138.987 37.3175 138.606 36.6677 138.211L138.21 36.6687C138.605 37.318 138.986 37.9769 139.361 38.6396L139.362 38.6391Z" fill="black"/>
<path d="M142.336 44.4774L44.4774 142.336C43.7654 142.013 43.0611 141.675 42.3611 141.33L141.33 42.3615C141.675 43.0616 142.013 43.7653 142.336 44.4774Z" fill="black"/>
<path d="M144.849 50.7788L50.7789 144.849C50.0109 144.582 49.2485 144.304 48.4921 144.013L144.013 48.4916C144.304 49.248 144.583 50.0104 144.849 50.7784L144.849 50.7788Z" fill="black"/>
<path d="M146.847 57.5934L57.5934 146.847C56.7612 146.646 55.9342 146.433 55.1136 146.204L146.204 55.1136C146.433 55.9342 146.646 56.7617 146.847 57.5938V57.5934Z" fill="black"/>
<path d="M148.24 65.0137L65.0137 148.24C64.1063 148.117 63.2035 147.979 62.3068 147.824L147.824 62.3068C147.979 63.2035 148.117 64.1063 148.24 65.0137Z" fill="black"/>
<path d="M148.89 73.1762L73.1757 148.891C72.175 148.867 71.1808 148.818 70.1898 148.754L148.753 70.1908C148.817 71.1818 148.866 72.176 148.89 73.1767L148.89 73.1762Z" fill="black"/>
<path d="M148.552 82.3269L82.3269 148.552C81.2075 148.663 80.0812 148.749 78.948 148.809L148.809 78.948C148.749 80.0812 148.663 81.208 148.552 82.3269Z" fill="black"/>
<path d="M146.705 92.9871L92.9871 146.705C91.6664 147.036 90.3304 147.329 88.9825 147.587L147.587 88.9825C147.329 90.33 147.036 91.6659 146.705 92.9871Z" fill="black"/>
<path d="M141.769 106.736L106.737 141.769C104.958 142.616 103.139 143.391 101.286 144.097L144.098 101.285C143.392 103.138 142.617 104.957 141.77 106.736L141.769 106.736Z" fill="black"/>
<path d="M122.95 131.246L131.244 122.952C128.703 125.931 125.929 128.704 122.95 131.246Z" fill="black"/>
<path fill-rule="evenodd" clip-rule="evenodd" d="M68.9721 72.9564C68.9721 70.2097 69.6953 67.9008 71.1573 65.8292C71.6809 65.0876 72.5366 64.0888 73.2948 63.5009C73.5904 63.2724 73.8324 63.0632 74.1598 62.8457C77.0307 60.9404 80.2825 60.2255 83.7196 61.0119C84.8348 61.2673 86.0202 61.7129 86.9991 62.2934C87.9393 62.8508 89.2572 63.8173 89.9582 64.6559L90.3055 65.0691C90.4163 65.2123 90.5267 65.3495 90.6375 65.4968C90.7483 65.6441 90.8388 65.7803 90.9571 65.9378L91.81 67.3651C92.5964 68.938 92.8698 70.4069 93.1108 72.1455C93.1399 72.357 93.2032 72.6377 93.2032 72.8608C94.0404 72.6659 95.4802 71.6375 97.8676 71.3489C99.7106 71.1259 101.476 71.3946 103.133 72.0531C104.486 72.5906 106.132 73.716 106.974 74.7684C107.497 75.4218 107.546 75.3498 108.131 76.3205C108.524 76.9725 108.858 77.6601 109.113 78.4257C110.423 82.3393 109.225 86.5923 106.897 88.9312C106.581 89.2485 106.836 89.0813 106.33 89.5043C106.243 89.5768 106.194 89.6378 106.115 89.7167C105.694 90.1356 104.807 90.7008 104.312 91.0019C103.234 91.6576 101.2 92.341 99.4746 92.341H67.1185C65.264 92.341 63.1574 91.3057 61.9512 90.0017C61.2234 89.2148 60.5917 88.1702 60.2708 87.1206C59.2862 83.9011 60.4199 80.579 63.1269 78.6566C65.4801 76.9859 67.2506 77.3742 69.7313 77.3742C69.662 77.2288 69.5447 76.5444 69.4939 76.3292C69.2506 75.3004 68.9712 74.0416 68.9712 72.9559L68.9721 72.9564ZM65.9313 72.4336C65.9313 73.142 65.9327 73.3092 66.0407 74.0346C66.1446 74.7365 66.2047 74.501 65.4838 74.647C64.6674 74.8118 64.128 74.9794 63.4335 75.2574C62.5377 75.6158 61.681 76.1131 60.9214 76.689L60.3793 77.1447C58.9353 78.3075 57.6534 80.4543 57.2165 82.2017L56.9104 83.8909C56.8868 84.1066 56.9215 84.3268 56.8961 84.5425C56.7409 85.883 57.2299 87.7408 57.7037 88.928C57.8302 89.2439 57.972 89.4868 58.1226 89.7915C58.3511 90.2529 58.6167 90.6177 58.8896 91.0203C58.9879 91.1658 59.0715 91.2632 59.1782 91.3972L59.7891 92.1162C61.5859 93.9836 64.3483 95.3823 67.0714 95.3823H99.6644C100.743 95.3823 101.917 95.1348 102.791 94.8975C104.107 94.54 105.4 93.9185 106.544 93.1875C107.567 92.5345 108.711 91.4978 109.467 90.5978C113.709 85.5492 113.824 78.5158 109.669 73.2612L108.798 72.2789C108.482 71.964 108.196 71.711 107.851 71.421C106.962 70.6738 106.611 70.4812 105.689 69.9248C105.299 69.6884 104.917 69.524 104.479 69.3291C102.847 68.6013 100.212 68.0319 98.3465 68.2647C97.355 68.3884 95.477 68.9578 95.3883 68.9647C95.3371 68.3473 94.4024 66.1276 94.0381 65.5166C93.5093 64.6309 93.3985 64.3991 92.789 63.5827C92.662 63.4123 92.5594 63.295 92.4361 63.1278C92.3105 62.9579 92.2043 62.8554 92.069 62.6868C91.7776 62.3211 91.1967 61.8076 90.8633 61.47C90.7206 61.326 90.5909 61.2271 90.432 61.0932C86.2053 57.5361 80.2234 56.5788 74.8621 58.987L73.6273 59.6054C73.1092 59.8723 72.4424 60.341 71.9645 60.6984C71.2113 61.2622 70.6387 61.8016 69.9797 62.4675L69.1342 63.4751C68.7163 64.0066 68.3413 64.5446 67.9936 65.1375C66.7551 67.2451 65.9304 69.9072 65.9304 72.4341L65.9313 72.4336Z" fill="#FEFEFE"/>
<path fill-rule="evenodd" clip-rule="evenodd" d="M57.8543 75.9973C59.2253 75.9973 60.1064 74.019 58.4745 73.0968C56.8638 72.1862 55.6373 70.8419 54.7978 69.1717C53.5643 66.7178 53.6285 63.7762 54.7816 61.284C55.006 60.7996 55.3062 60.3424 55.6017 59.9185L56.6075 58.7387C58.4791 57.1095 60.2472 56.185 63.0336 56.185C64.2213 56.185 65.6995 56.5156 66.708 57.0241C68.1709 57.7615 67.8902 57.726 68.7819 58.3715C69.9954 59.2494 71.3009 58.2759 71.3009 57.2305C71.3009 56.2681 70.5971 55.883 70.0315 55.4591C68.8687 54.5891 67.2026 53.8761 65.7387 53.5755C65.3056 53.4863 64.9172 53.4199 64.4398 53.3538C64.2015 53.3206 63.9673 53.3044 63.7466 53.2869C63.3758 53.2573 63.186 53.0172 62.4481 53.2236C62.2287 53.285 62.1207 53.2804 61.8736 53.3136C61.6543 53.3437 61.4714 53.3603 61.2756 53.3815C57.9286 53.7399 54.6772 55.9204 52.8089 58.6929C52.1444 59.6788 51.5136 61.0268 51.1926 62.3512C50.2367 66.2952 51.2591 69.7785 53.3482 72.5699C53.7527 73.1111 54.1402 73.493 54.6126 73.9664C55.3805 74.7352 56.0053 75.1106 56.8665 75.6556C57.1621 75.8426 57.3773 75.9973 57.8552 75.9973H57.8543Z" fill="#FEFEFE"/>
<path fill-rule="evenodd" clip-rule="evenodd" d="M73.1055 53.4295C73.1055 54.1148 73.4542 54.6066 73.9907 54.8721C74.6733 55.2106 75.2971 55.0199 75.8023 54.5105C76.1052 54.2044 76.3768 53.9361 76.6806 53.6313L81.0047 49.3077C81.425 48.8874 81.6101 48.706 81.6101 48.0133C81.6101 47.2804 80.8856 46.5878 80.2797 46.5878C79.6439 46.5878 79.2781 46.6653 78.8177 47.1211L73.6869 52.2529C73.4269 52.5101 73.105 52.9382 73.105 53.4295H73.1055Z" fill="#FEFEFE"/>
<path fill-rule="evenodd" clip-rule="evenodd" d="M44.2659 48.1079C44.2659 48.6237 44.5291 49.0167 44.7997 49.2841L46.5106 50.9941C46.7803 51.2633 47.086 51.611 47.3681 51.847C48.0982 52.457 50.0123 54.5484 50.4131 54.7885C51.2545 55.2928 52.7234 54.9317 52.7234 53.381C52.7234 52.632 51.9314 52.0428 51.3099 51.4217L47.0578 47.1691C46.7853 46.8958 46.4529 46.5873 45.9292 46.5873C45.4471 46.5873 45.0389 46.7692 44.7761 47.0024C44.4945 47.2532 44.2663 47.7473 44.2663 48.1079H44.2659Z" fill="#FEFEFE"/>
<path fill-rule="evenodd" clip-rule="evenodd" d="M37.2814 64.4518V65.9244C37.2814 66.262 37.8416 66.6042 38.1283 66.6933C38.4802 66.8023 42.313 66.7321 42.8879 66.7321C43.9643 66.7321 45.0421 66.7284 46.119 66.7325C47.1677 66.7367 47.8765 66.1835 47.8765 65.2114C47.8765 64.3364 47.1506 63.6917 46.2612 63.6917H38.5167C38.1985 63.6917 37.9487 63.8044 37.7548 63.9277C37.5982 64.0279 37.2814 64.2833 37.2814 64.4518Z" fill="#FEFEFE"/>
<path fill-rule="evenodd" clip-rule="evenodd" d="M61.4178 40.8857V48.8205C61.4178 49.4046 62.1151 50.1504 62.7482 50.1504C63.2502 50.1504 63.6935 50.1065 64.0662 49.6623C64.2883 49.3972 64.4587 49.007 64.4587 48.5351V41.123C64.4587 39.7922 63.0105 38.9568 61.8926 39.9353C61.694 40.109 61.4178 40.5172 61.4178 40.8857Z" fill="#FEFEFE"/>
<path fill-rule="evenodd" clip-rule="evenodd" d="M44.3134 82.2216C44.3134 83.5677 45.8516 84.4718 47.0098 83.3026L52.5788 77.6111C53.3468 76.1344 51.4955 74.4752 50.0261 75.9612C49.7315 76.259 49.4678 76.5204 49.1714 76.8169L45.7514 80.2382C45.2037 80.7887 44.3134 81.3243 44.3134 82.2211V82.2216Z" fill="#FEFEFE"/>
<path fill-rule="evenodd" clip-rule="evenodd" d="M79.4725 108.924C79.4725 109.771 80.1629 110.491 80.8505 110.491C81.2859 110.491 81.569 110.493 81.9722 110.188C82.1559 110.048 82.3559 109.817 82.5254 109.648L84.7585 107.415C85.3002 106.873 85.6018 106.703 85.6018 105.835C85.6018 105.088 84.9294 104.41 84.0816 104.41C83.2956 104.41 82.9959 104.806 82.597 105.205L80.3162 107.486C79.9445 107.857 79.473 108.204 79.473 108.923L79.4725 108.924Z" fill="#FEFEFE"/>
<path fill-rule="evenodd" clip-rule="evenodd" d="M94.5811 102.747C94.5811 103.284 94.5719 103.592 95.0429 104.043C95.4484 104.431 95.7633 104.457 96.2916 104.457C96.8683 104.457 97.32 103.88 97.634 103.566L100.434 100.759C101.043 99.9503 100.626 98.3752 99.095 98.3752C98.1978 98.3752 97.325 99.5038 96.5649 100.264C95.9489 100.88 94.5811 102.033 94.5811 102.746V102.747Z" fill="#FEFEFE"/>
<path fill-rule="evenodd" clip-rule="evenodd" d="M65.8837 102.889C65.8837 103.709 66.6193 104.457 67.2617 104.457C68.2411 104.457 68.2988 104.251 68.9361 103.614L71.7765 100.752C72.429 99.8515 71.8596 98.3752 70.4447 98.3752C69.741 98.3752 69.3716 98.8069 69.0077 99.1708C68.5579 99.6206 66.4286 101.702 66.1807 102.046C66.0514 102.225 65.8837 102.605 65.8837 102.889Z" fill="#FEFEFE"/>
</svg>
