<svg width="56" height="45" viewBox="0 0 56 45" fill="none" xmlns="http://www.w3.org/2000/svg">
<g clip-path="url(#clip0_37_3)">
<path fill-rule="evenodd" clip-rule="evenodd" d="M44.9139 12.6668C46.5666 15.6873 47.0801 17.4822 47.4793 20.8846C47.4903 20.979 47.4991 21.0638 47.522 21.156L47.5753 21.8927C47.4672 21.7627 46.8981 21.2281 46.7289 21.0587L45.0161 19.3371C44.8597 19.1792 44.7434 19.0654 44.5872 18.9072L44.1194 18.4818C43.732 18.0504 42.4061 18.1648 42.0463 19.1747C41.9725 19.3818 41.923 19.9275 42.0422 20.1258C42.3618 20.573 42.0722 20.3618 42.723 21.0115C43.561 21.848 47.6075 26.0147 48.203 26.461L48.3069 26.5443C48.3152 26.5511 48.3308 26.565 48.3431 26.575C49.5485 27.2369 50.4715 25.8721 51.2482 25.0959C52.1327 24.212 55.3686 21.1383 55.8409 20.3449C56.1069 19.7784 56.0308 19.2743 55.6776 18.7759L55.5665 18.6581C55.5414 18.6343 55.4455 18.5547 55.4103 18.5281C55.0241 18.2362 54.4257 18.1395 54.0494 18.367C53.6414 18.7245 53.8258 18.447 53.0826 19.1944C52.6724 19.6069 50.4859 21.8448 50.3534 21.8912L50.3072 20.95C50.4069 18.7715 49.229 14.8909 48.3126 12.9158C47.5393 11.2491 46.6079 9.87331 45.4389 8.47071C42.7523 5.28252 40.1027 3.11125 36.2277 1.53042C32.663 0.0761813 28.3871 -0.327755 24.6022 0.259311L24.3664 0.295894C23.4559 0.441978 22.6007 0.647421 21.7129 0.893993C16.3918 2.43043 12.1431 5.7315 9.11133 10.363C8.70327 10.994 7.76731 12.2675 8.09447 13.0375C8.49636 13.9834 9.39068 14.3637 10.2651 13.7683C10.5679 13.5621 11.4755 11.996 11.7262 11.6283C14.1078 8.17081 17.0443 5.66743 20.9774 4.14323C27.9385 1.77466 34.5616 2.70918 40.4141 7.24611C42.42 8.82053 43.5444 10.5653 44.9139 12.6668L44.9139 12.6668ZM3.18743 21.5419L0.790041 23.9526C0.128506 24.6193 0.516279 24.2377 0.0871664 24.8609C-0.0300765 25.0874 -0.0278665 25.5383 0.0871664 25.7658C0.201078 25.9328 0.298127 26.1647 0.422438 26.2957C0.545458 26.4254 0.73092 26.4802 0.902168 26.6324C1.11168 26.7527 1.44166 26.7965 1.76634 26.7139C2.32932 26.5706 2.97601 25.7652 3.4978 25.2405L5.62409 23.1311C5.62409 25.6961 6.18762 28.1136 6.85782 30.0411C7.85518 32.7837 9.25184 35.1351 11.1782 37.3253C12.4303 38.7226 13.4778 39.6297 14.9518 40.7571C15.4783 41.1597 15.5197 41.2809 16.1931 41.6853C19.7648 43.8074 23.2319 44.8735 27.3875 45H28.6049C33.4485 44.8538 37.7804 43.3022 41.6291 40.3286C43.8098 38.6438 45.5049 36.6933 47.0491 34.4156C47.6906 33.4605 48.4415 32.2625 47.4677 31.2786C47.3319 31.1415 46.7654 30.9097 46.5899 30.9226C45.4671 31.0052 45.0593 32.0814 44.5312 32.9485C42.2359 36.6727 39.5935 38.8062 35.6449 40.5788C26.7339 44.5792 15.9404 40.8062 11.1001 32.387C10.3852 31.1434 9.85934 29.9199 9.41431 28.5564L9.34251 28.3311C9.04113 27.3635 8.83424 26.4373 8.67436 25.437L8.6393 25.2076C8.5809 24.7927 8.47815 24.1329 8.47815 23.6738C8.40818 23.5074 8.39474 23.3169 8.45271 23.1055L11.5789 26.2688C11.7473 26.4267 11.9011 26.4608 12.0925 26.6324C12.6041 26.9347 13.2579 26.6947 13.6888 26.247C14.0787 25.8421 14.169 24.9907 13.7974 24.498C12.9489 23.6437 8.2004 18.732 7.65478 18.432C6.61527 17.8606 5.91772 18.7887 5.21036 19.4884C4.52655 20.1649 3.86161 20.8565 3.1874 21.5419L3.18743 21.5419Z" fill="#004979"/>
<path fill-rule="evenodd" clip-rule="evenodd" d="M21.485 20.5168C21.485 21.37 21.582 22.0452 21.8332 22.806C21.8968 22.9986 21.9876 23.1908 22.0619 23.3747C22.0976 23.463 22.1441 23.5545 22.1894 23.6391L22.3354 23.8982C22.4832 24.1438 22.646 24.3773 22.8157 24.6064C22.8467 24.6482 22.8704 24.6779 22.904 24.7206C23.3679 25.3105 24.0643 25.9213 24.7063 26.3058C25.0469 26.5097 25.4055 26.6937 25.784 26.8193L26.2338 26.9626C26.2857 26.9758 26.3333 26.9922 26.3927 27.0059C26.6187 27.0577 26.8279 27.0975 27.0618 27.1316C27.6641 27.2196 28.3495 27.2112 28.9518 27.1317C29.4889 27.0609 30.0188 26.9185 30.5115 26.7104C30.6071 26.67 30.7004 26.6313 30.791 26.5853C31.1392 26.4089 31.4724 26.2178 31.7846 25.9873C32.161 25.7093 32.5127 25.3922 32.8293 25.048L33.0594 24.7786C33.4697 24.2677 33.8225 23.7213 34.069 23.1002C34.1883 22.7993 34.2846 22.5165 34.3589 22.187C34.6378 20.9498 34.5752 19.5741 34.1401 18.4033C34.1149 18.3354 34.0982 18.2789 34.0705 18.2161L33.6536 17.363C33.7996 17.3972 34.4306 17.7911 34.6051 17.8951L35.11 18.2266C35.4422 18.4482 35.7566 18.6922 36.065 18.9448C36.1885 19.0459 36.2991 19.1445 36.4226 19.2485C36.4554 19.2761 36.4724 19.3013 36.5053 19.3277C36.5469 19.3611 36.5599 19.371 36.5982 19.4103L36.7732 19.5727C36.8871 19.6873 36.9953 19.7825 37.1097 19.8975L37.8995 20.7682C37.9262 20.8025 37.9457 20.8236 37.9727 20.8571C37.998 20.8885 38.0251 20.9216 38.0523 20.953C38.4122 21.3679 38.739 21.8409 39.0434 22.2981C39.0666 22.333 39.1693 22.4774 39.1726 22.5066C39.182 22.5905 38.1345 23.956 38.0244 24.0862C37.6883 24.4835 37.3352 24.8617 36.9684 25.2306C36.7221 25.4782 36.3682 25.8027 36.0958 26.018L34.6741 27.0654L33.9943 27.4783C33.9311 27.5138 33.8726 27.543 33.8125 27.5798L33.4517 27.7719C32.3213 28.3402 30.9717 28.792 29.6937 28.947C29.5258 28.9674 29.3646 28.9964 29.198 29.0035C29.1277 29.0066 29.0227 29.0141 28.9501 29.025C28.7682 29.0523 28.0722 29.0578 27.8655 29.0578C27.1658 29.0578 26.4701 28.9838 25.8676 28.874C25.2235 28.7566 24.6855 28.6169 24.1183 28.4267C23.6238 28.2609 22.8198 27.9388 22.3947 27.6829C22.3332 27.6458 22.279 27.6272 22.2176 27.5902L21.8644 27.3904C21.3566 27.0814 20.8644 26.7525 20.3908 26.3951C20.1969 26.2487 19.9504 26.0649 19.7789 25.9006C19.7475 25.8705 19.7354 25.8666 19.705 25.8395L19.3411 25.5151C19.1072 25.2887 18.8683 25.071 18.648 24.8314L18.1966 24.3243C17.8797 23.9453 17.5718 23.5785 17.2851 23.1699L16.9487 22.6825C16.833 22.508 16.811 22.5565 16.9026 22.4061C17.1423 22.0128 17.6534 21.3 17.9548 20.96C18.0838 20.8144 18.1971 20.6523 18.3316 20.5132C18.3701 20.4733 18.3796 20.4633 18.4139 20.42L18.8095 19.9921C18.8394 19.9596 18.8656 19.9361 18.8972 19.9043C18.9551 19.8461 19.0058 19.7902 19.0653 19.7349C19.0997 19.7029 19.1182 19.6958 19.1532 19.6609L19.8463 19.0314C19.8791 19.002 19.9067 18.98 19.9412 18.9509C20.0042 18.8975 20.0577 18.8592 20.1213 18.8071C20.4514 18.5368 20.9214 18.188 21.2923 17.9678L22.0191 17.5346C22.0618 17.5107 22.0932 17.4987 22.1337 17.4739C22.183 17.4438 22.3049 17.3759 22.36 17.363L22.1042 17.8503C21.7064 18.6479 21.485 19.6222 21.485 20.5168L21.485 20.5168ZM24.3252 21.3289C24.1675 21.3289 24.1157 21.3322 23.964 21.259C23.7378 21.1497 23.5849 20.8987 23.5849 20.6251C23.5849 19.807 23.793 19.1014 24.0872 18.572C24.2451 18.288 24.387 18.0579 24.6049 17.8067C25.1412 17.1881 25.6889 16.7658 26.448 16.4656C26.8831 16.2935 27.6073 16.1534 28.0821 16.1976C28.8171 16.2662 28.9306 17.3159 28.2376 17.5478C27.9721 17.6367 27.3056 17.4974 26.4949 17.9882C26.3792 18.0583 26.2683 18.1282 26.1662 18.2126C26.1388 18.2353 26.1187 18.2494 26.092 18.2734C25.9208 18.4269 25.7646 18.5745 25.6192 18.7589C24.8444 19.7412 25.0369 20.5332 24.9464 20.8436C24.8765 21.0834 24.6288 21.3289 24.3252 21.3289H24.3252ZM14.9699 22.4118C14.9699 22.8275 15.0129 23.0374 15.1897 23.3954C15.483 23.989 16.4157 25.2086 16.8512 25.7042L17.1674 26.0495C17.2293 26.1116 17.2681 26.1649 17.3289 26.2255L17.7393 26.6385C17.7752 26.6747 17.7914 26.6814 17.8269 26.7128C17.8894 26.7682 17.9332 26.8283 17.9986 26.8785L18.5217 27.3406C18.8578 27.6143 19.1892 27.8931 19.5494 28.1345L19.8427 28.3404C19.9753 28.4287 20.1038 28.5127 20.241 28.6031C20.6463 28.87 21.064 29.1101 21.4984 29.3285C21.6458 29.4025 21.7872 29.4732 21.9381 29.5496C22.4545 29.8114 23.0272 30.0327 23.5765 30.2167L24.3415 30.4491C25.2919 30.6922 25.8747 30.7908 26.8579 30.8966C27.0693 30.9193 27.6108 30.9392 27.8251 30.9392C29.2578 30.9392 30.3087 30.8046 31.6643 30.4548C32.4265 30.2581 33.1229 29.9726 33.8382 29.663L34.5106 29.3375C34.8008 29.1918 35.0806 29.0309 35.3589 28.864C35.6431 28.6935 35.9031 28.5277 36.1762 28.3458C36.6345 28.0405 37.0616 27.6976 37.4881 27.3504C37.5214 27.3232 37.5423 27.3037 37.5765 27.2768C37.6182 27.244 37.6313 27.2263 37.6706 27.1956L37.8435 27.0445C37.904 26.9828 37.9565 26.9446 38.0182 26.8818L38.3593 26.5615C38.4442 26.4955 38.5337 26.4033 38.6033 26.3196L39.0887 25.7925C39.2592 25.6212 39.6056 25.1826 39.759 24.9776C40.1214 24.4931 40.7143 23.7057 40.9265 23.1603C41.1558 22.5714 41.0378 21.9307 40.7098 21.421L39.9014 20.2306C39.713 19.978 39.5197 19.7211 39.3103 19.4849C39.2571 19.4248 39.2027 19.3684 39.1534 19.3043L38.8395 18.9568C38.8092 18.9265 38.7888 18.9058 38.7586 18.8757C38.7201 18.8375 38.7112 18.8191 38.6778 18.781L38.0925 18.2054C37.9777 18.0986 37.8473 17.9993 37.7356 17.8876C37.5396 17.6916 37.3101 17.529 37.0954 17.3537C36.5375 16.8984 35.9269 16.5017 35.3101 16.1305C34.7427 15.7891 34.1483 15.499 33.5457 15.2246C32.6479 14.8156 31.4283 14.4522 30.473 14.2943L29.6044 14.1661L28.6866 14.0873C25.1789 13.8968 22.164 15.1213 19.8939 16.6429C19.3654 16.9972 18.8575 17.3796 18.3785 17.7992L17.0261 19.1192C16.9892 19.1555 16.9817 19.1668 16.9507 19.2059L16.5625 19.6547C16.5079 19.7199 16.4637 19.7765 16.412 19.8418C16.3123 19.9677 16.2214 20.0843 16.1237 20.2152C15.8363 20.6003 15.5548 20.9979 15.3071 21.4108C15.1641 21.6491 14.97 22.0361 14.97 22.4118L14.9699 22.4118Z" fill="#004979"/>
</g>
<defs>
<clipPath id="clip0_37_3">
<rect width="56" height="45" fill="white"/>
</clipPath>
</defs>
</svg>
