<svg width="143" height="41" viewBox="0 0 143 41" fill="none" xmlns="http://www.w3.org/2000/svg">
<path d="M22.0026 17.1116C22.0026 19.8625 21.1474 22.1104 19.4387 23.8569C17.4287 25.8989 14.4591 26.9182 10.5299 26.9182H3.33154V40.0966H0.0016861V7.26181H10.5299C14.88 7.26181 18.0145 8.43057 19.9336 10.7664C21.3141 12.4233 22.0026 14.5383 22.0026 17.1116ZM18.6727 17.1116C18.6727 15.1592 18.0734 13.5771 16.8731 12.3635C15.4641 10.9441 13.3632 10.2335 10.5737 10.2335H3.32985V23.9448H10.5737C13.3329 23.9448 15.4187 23.2343 16.8277 21.8149C18.0583 20.6013 18.6727 19.0341 18.6727 17.1116Z" fill="#FEFEFE"/>
<path d="M51.1581 40.0966H47.5589L42.7443 29.093H27.2667L22.4521 40.0966H18.8529L33.2059 7.26181H36.896L51.1598 40.0966H51.1581ZM41.4396 26.1197L35.051 11.0769L28.5714 26.1197H41.4396Z" fill="#FEFEFE"/>
<path d="M77.5259 17.9998C77.5259 20.7507 76.6185 23.0799 74.8038 24.9891C72.989 26.8966 70.6271 27.8512 67.7165 27.8512L77.0747 40.0983H72.9351L61.6409 25.2332H64.2957C67.4757 25.2332 69.8898 24.6272 71.5396 23.4136C73.3089 22.112 74.1944 20.2045 74.1944 17.6894C74.1944 15.5892 73.5344 13.9025 72.2146 12.6308C70.5649 11.0337 67.9252 10.2352 64.2957 10.2352H58.3111V40.0983H54.9812V7.26349H64.2957C68.4959 7.26349 71.7197 8.15002 73.9688 9.9264C76.3391 11.819 77.5225 14.5118 77.5225 18.0015L77.5259 17.9998Z" fill="#FEFEFE"/>
<path d="M143 31.4156C143 33.871 142.175 36.0159 140.525 37.8504C138.635 39.9505 136.086 41.0014 132.876 41.0014C129.936 41.0014 127.484 40.0917 125.519 38.2721C123.555 36.4526 122.571 34.1084 122.571 31.2396H125.901C125.901 33.2518 126.546 34.9086 127.836 36.2102C129.036 37.4238 130.686 38.0297 132.785 38.0297C134.914 38.0297 136.595 37.3789 137.823 36.0774C139.054 34.7758 139.668 33.2086 139.668 31.3741C139.668 29.6293 139.113 28.2082 138.004 27.1141C137.313 26.4334 136.384 25.8723 135.214 25.4274C132.755 24.599 130.295 23.7556 127.836 22.8973C125.016 21.448 123.607 19.1254 123.607 15.9312C123.607 13.7116 124.312 11.7742 125.721 10.119C127.462 8.04873 129.906 7.01279 133.056 7.01279C135.965 7.01279 138.259 7.94414 139.94 9.80851C141.439 11.4654 142.189 13.4908 142.189 15.8881H138.859C138.859 14.4686 138.453 13.2251 137.643 12.161C136.534 10.7116 134.869 9.98615 132.649 9.98615C130.729 9.98615 129.297 10.5772 128.351 11.7609C127.406 12.9446 126.933 14.3491 126.933 15.976C126.933 17.6329 127.504 18.8896 128.644 19.7479C129.544 20.4286 131.164 21.0943 133.504 21.7451C136.293 22.5138 138.318 23.3572 139.578 24.2752C141.857 25.9321 142.997 28.3128 142.997 31.4189L143 31.4156Z" fill="#FEFEFE"/>
<path fill-rule="evenodd" clip-rule="evenodd" d="M98.2356 0.446829C99.4544 0.226026 100.668 0.116455 101.867 0.108154C90.6382 2.29294 83.1991 12.7337 85.2159 23.5647C87.2444 34.467 98.0841 41.6439 109.446 39.6252C108.26 40.0751 107.015 40.4254 105.72 40.6594C94.4596 42.6981 83.657 35.3486 81.5897 24.2437C79.5225 13.1388 86.975 2.48552 98.2356 0.446829Z" fill="#FEFEFE"/>
<path fill-rule="evenodd" clip-rule="evenodd" d="M100.224 14.7625L101.163 14.1831C101.136 14.1432 101.109 14.1001 101.082 14.0585C100.995 13.9208 100.917 13.7863 100.848 13.6601L98.813 14.9152C98.7305 14.9667 98.6194 14.9418 98.5672 14.8587C98.5151 14.7774 98.5403 14.6678 98.6245 14.6164L100.692 13.3414C100.571 13.0624 100.528 12.8599 100.597 12.8184C100.666 12.7752 100.831 12.9014 101.033 13.1322L103.101 11.8572C103.183 11.8057 103.294 11.8306 103.347 11.9136C103.399 11.995 103.373 12.1045 103.289 12.156L101.256 13.4094C101.342 13.5256 101.429 13.6535 101.517 13.7913C101.544 13.8344 101.569 13.8759 101.594 13.9174L102.533 13.338C103.749 14.2926 105.04 15.8914 106.336 17.8471C110.186 15.4963 114.053 13.597 118.255 11.5484L120.529 15.1377C120.529 15.1377 113.168 21.9477 109.907 23.8552C109.887 23.8668 109.865 23.8768 109.845 23.8884C111.27 26.6111 112.614 29.4599 113.76 32.005C113.807 32.083 114.225 32.7653 114.691 32.5977C115.158 32.4283 118.45 31.5036 118.45 31.5036L119.898 33.612C118.982 34.5351 117.991 35.4067 116.935 36.2384C116.935 36.2384 116.304 34.9285 115.252 35.3851C115.525 36.0126 115.775 36.5987 116.004 37.1283C115.621 36.695 115.198 36.2152 114.745 35.6988C113.932 36.5007 114.786 37.5649 114.786 37.5649C113.616 38.1891 112.425 38.6855 111.22 39.0723L109.819 36.8377C109.819 36.8377 112.084 34.3309 112.451 33.9806C112.819 33.6303 112.314 32.8882 112.314 32.8882C110.498 30.7582 108.491 28.3227 106.636 25.8673C106.616 25.8806 106.597 25.8955 106.577 25.9088C103.411 27.9641 93.9782 31.5086 93.9782 31.5086L91.7038 27.921C95.4125 25.0937 98.8383 22.4955 102.666 20.1132L102.616 20.0285C101.427 18.0546 100.555 16.24 100.222 14.7658L100.224 14.7625Z" fill="#0994D2"/>
</svg>
