<svg width="40" height="40" viewBox="0 0 40 40" fill="none" xmlns="http://www.w3.org/2000/svg">
<g clip-path="url(#clip0_22_8)">
<path d="M20.0093 0C8.9652 0 0 8.94663 0 20.0093C0 31.0534 8.94663 40.0186 20.0093 40.0186C31.0534 40.0186 40.0186 31.0719 40.0186 20.0093C40.0186 8.9652 31.0719 0 20.0093 0ZM26.5615 21.123C25.7633 21.1044 25.0209 21.1415 24.0928 21.0858C23.9443 21.0858 21.5128 21.123 21.5128 21.1601C21.6984 22.2367 21.4385 23.3875 21.4571 24.4826C21.4756 25.1137 21.6613 30.8863 21.5684 33.0209L16.7425 33.058C16.7239 31.239 16.8167 29.3828 16.7239 26.9884C16.7053 26.5058 16.6868 21.3271 16.6311 21.0487C16.6311 21.0487 14.4965 21.0673 13.5128 21.0673C13.5128 21.0673 13.4942 19.1555 13.4942 18.5058C13.4942 17.8747 13.4942 17.2436 13.4942 16.6125C13.4942 16.6125 15.9814 16.4826 16.6868 16.4084C16.6868 16.4084 16.761 13.9954 16.8538 13.1972C16.9652 12.3063 16.9838 11.3968 17.5035 10.5986C18.4687 9.15081 19.4153 7.87007 21.1972 7.48028C21.8654 7.33179 26.2831 6.4594 26.4501 7.18329L26.3573 11.4896C25.1508 11.4896 23.7216 11.3596 22.4965 12.2877C21.8097 12.7889 21.6241 13.2158 21.5499 14.051C21.5128 14.5336 21.4942 16.5012 21.4942 16.5012C22.1439 16.594 23.0905 16.5568 23.7958 16.5012C24.5754 16.4455 26.5986 16.6497 26.5986 16.6497C26.5986 17.949 26.5429 20.9559 26.5429 21.0858L26.5615 21.123Z" fill="#3A5897"/>
</g>
<defs>
<clipPath id="clip0_22_8">
<rect width="40" height="40" fill="white"/>
</clipPath>
</defs>
</svg>
