<svg width="1895" height="640" viewBox="0 0 1895 640" fill="none" xmlns="http://www.w3.org/2000/svg">
<path fill-rule="evenodd" clip-rule="evenodd" d="M1586.3 519.281C1585.31 517.884 1580.78 514.686 1579.8 513.303C1583.01 512.737 1587.1 512.173 1590.35 511.853C1592.72 511.62 1596.06 512.561 1597.65 514.409C1597.94 514.748 1597.59 514.221 1597.94 514.823C1596.09 515.422 1594.11 516.344 1592.15 517.105C1590.91 517.587 1587.52 519.147 1586.3 519.281V519.281ZM1500.92 466.449C1501.45 468.405 1502.68 470.342 1503.83 471.195C1504.68 471.825 1506.03 471.559 1506.27 470.497C1506.54 469.291 1505.45 468.689 1504.92 468.045C1503.86 466.774 1502.89 464.077 1504.09 462.583C1505.27 461.115 1508.14 461.352 1509.7 462.165C1510.41 462.531 1511.21 463.386 1512.3 462.842C1514.43 461.78 1512.06 458.692 1507.07 458.594C1502.32 458.499 1499.7 461.873 1500.92 466.448V466.449ZM1576.93 541.517C1576.28 541.322 1576.87 541.567 1576.32 541.262C1576.19 541.188 1576.05 541.076 1575.91 540.963C1573.93 539.389 1572.61 537.52 1572.24 534.841C1571.79 531.614 1571.39 527.51 1571.18 524.242L1576.69 527.926C1577.41 528.399 1577.72 528.841 1578.53 529.156C1578.73 530.84 1577.03 538.897 1576.93 541.517L1576.93 541.517ZM1550.61 487.672C1549.51 486.88 1547.94 485.279 1546.63 484.257C1545.88 483.679 1545.44 483.106 1544.73 482.515L1538.82 477.369C1537.51 476.159 1536.29 475.129 1534.99 473.96C1535.01 473.927 1535.05 473.884 1535.06 473.866L1570.15 446.562C1572.21 444.992 1573.74 443.352 1576.88 442.692C1580.22 441.989 1582.72 443.084 1584.83 444.214L1550.61 487.672V487.672ZM1574.25 522.722C1572.25 521.283 1570.62 520.161 1568.63 518.803L1556.01 509.909C1555.44 509.551 1555.11 509.384 1554.58 508.962L1547.61 503.967C1543.89 501.646 1537.94 497.071 1533.62 494.251L1525.23 488.304C1524.62 487.932 1524.38 487.784 1523.82 487.333L1501.37 471.553C1498.8 469.09 1494.57 461.642 1497.8 457.634C1501.05 453.586 1509.23 455.872 1512.27 457.902C1513.14 458.48 1513.95 459.35 1514.87 460.136C1515.35 460.541 1515.66 460.889 1516.12 461.325L1522.61 466.924C1524.32 468.322 1525.97 470.058 1527.72 471.495L1540.6 482.821C1541.06 483.23 1541.48 483.515 1541.91 483.922L1545.63 487.295C1548.11 489.194 1553.12 493.935 1555.99 496.298L1561.09 500.884C1562.91 502.619 1566.66 505.573 1568.84 507.648C1569.67 508.445 1570.54 509.161 1571.39 509.957L1576.58 514.425C1577.06 514.829 1577.38 515.168 1577.84 515.606C1579.01 516.723 1583.49 520.307 1584.18 521.261L1582.93 522.716L1571.71 513.89C1571 513.336 1568.63 510.808 1567.38 512.388C1566.13 513.966 1569.15 515.684 1569.86 516.245L1581.13 525.118L1579.91 526.595L1574.25 522.722L1574.25 522.722ZM1505.18 545.351C1503.58 543.559 1501.94 541.404 1501.84 537.986C1501.74 534.689 1502.99 532.956 1504.02 530.531L1519.26 496.615C1519.72 495.518 1520.22 494.374 1520.76 493.287C1521.14 492.528 1521.99 490.738 1522.22 489.921C1523.33 490.288 1525.47 492.1 1526.63 492.853C1527.42 493.374 1528.06 493.88 1528.85 494.385C1530.48 495.423 1531.72 496.509 1533.11 497.465C1534.34 498.31 1538.37 500.966 1539.41 501.888L1505.18 545.351H1505.18ZM1579.56 543.47C1579.85 541.436 1580.12 539.595 1580.4 537.571C1580.67 535.595 1580.96 533.671 1581.24 531.729C1581.51 529.871 1581.44 528.669 1583.44 527C1584.18 527.222 1584.68 527.792 1585.29 528.275C1585.88 528.739 1586.33 529.093 1586.93 529.559C1587.6 530.083 1589.48 532.148 1590.63 530.684C1592.27 528.598 1586.5 526.533 1585.36 524.565C1585.63 524.022 1586.56 522.784 1587.01 522.388C1587.52 521.944 1594.25 519.396 1595.2 519.023C1601.62 516.491 1604.61 516.149 1600.6 512.988C1598.19 511.086 1595.48 508.685 1590.84 508.867C1586.29 509.047 1581.2 510.525 1576.55 510.715L1573.6 507.927C1572.67 507.02 1571.62 506.283 1570.63 505.368C1568.11 503.017 1553.44 490.447 1552.89 489.593C1554.5 487.834 1556.14 485.508 1557.66 483.575L1571.88 465.509C1572.7 464.468 1588.22 444.973 1588.48 444.324C1589.15 442.633 1587.33 442.125 1586.25 441.639C1583.69 440.479 1581.77 439.346 1578.08 439.593C1574.5 439.835 1572.15 441.301 1569.97 443C1562.08 449.135 1553 456.309 1545.04 462.281C1541.75 464.752 1535.54 469.978 1532.63 471.878C1531.92 471.226 1531.4 470.807 1530.61 470.194L1516.67 457.848C1514.21 455.492 1511.55 453.627 1507.06 452.799C1502.63 451.98 1497.83 452.904 1495.51 455.831C1492 460.265 1494.37 468.021 1498.35 472.611C1499.85 474.346 1506.48 478.83 1509.11 480.507C1509.55 480.79 1509.72 480.997 1510.18 481.319L1519.83 488.129C1519.54 489.158 1518.75 490.648 1518.23 491.759C1515.53 497.455 1512.75 503.978 1510.15 509.825L1500.41 531.425C1499.31 533.86 1498.47 536.742 1499.17 540.206C1499.92 543.955 1501.34 545.103 1503.08 547.456C1503.83 548.463 1504.92 550.026 1506.35 548.71L1522.93 527.677C1524.99 525.081 1540.29 505.931 1541.81 503.657C1542.6 503.929 1548.79 508.416 1550.19 509.389L1567.98 521.931C1568.77 526.344 1568.55 532.018 1569.53 536.168C1570.64 540.906 1573.42 542.671 1575.96 544.674C1576.52 545.114 1577.28 545.977 1578.33 545.741C1579.48 545.48 1579.4 544.574 1579.56 543.469V543.47Z" fill="#FEFEFE" fill-opacity="0.4"/>
<path fill-rule="evenodd" clip-rule="evenodd" d="M1895 600.518V603.25L1892.48 603.449L1889.12 603.693L1885.75 603.917L1883.8 604.034L1883.63 601.316L1885.58 601.199L1888.93 600.977L1892.28 600.733L1895 600.518ZM1609.46 539.885L1609.1 539.611L1610.77 537.46L1611.1 537.713L1609.46 539.885ZM1622.85 549.338L1620.6 547.859L1622.1 545.59L1624.33 547.051L1626.39 548.367L1628.49 549.67L1630.61 550.959L1632.76 552.234L1633.6 552.719L1632.25 555.084L1631.38 554.585L1629.21 553.294L1627.06 551.99L1624.94 550.671L1622.85 549.338ZM1645.04 562.019L1644.27 561.624L1645.5 559.195L1646.27 559.59L1648.62 560.766L1651 561.927L1653.4 563.074L1655.83 564.206L1657.72 565.068L1656.6 567.551L1654.69 566.679L1652.24 565.536L1649.81 564.379L1647.41 563.207L1645.04 562.019ZM1669.91 573.212L1669.18 572.918L1670.19 570.389L1670.92 570.683L1673.52 571.71L1676.14 572.721L1678.79 573.716L1681.45 574.697L1682.87 575.206L1681.96 577.772L1680.52 577.256L1677.84 576.269L1675.17 575.266L1672.53 574.246L1669.91 573.212ZM1697.09 582.844L1694.91 582.153L1695.72 579.554L1697.91 580.245L1700.72 581.114L1703.56 581.967L1706.41 582.803L1708.73 583.467L1707.99 586.088L1705.65 585.42L1702.78 584.578L1699.93 583.719L1697.09 582.844ZM1723.25 590.12L1721.2 589.608L1721.85 586.964L1723.9 587.476L1726.88 588.196L1729.87 588.899L1732.88 589.585L1735.07 590.069L1734.49 592.73L1732.28 592.242L1729.26 591.552L1726.25 590.845L1723.25 590.12ZM1750.75 596.018L1747.87 595.477L1748.37 592.799L1751.25 593.34L1754.36 593.905L1757.48 594.452L1760.61 594.982L1761.75 595.167L1761.32 597.856L1760.17 597.668L1757.02 597.136L1753.88 596.586L1750.75 596.018ZM1776.1 600.06L1774.82 599.883L1775.18 597.184L1776.47 597.361L1779.67 597.783L1782.88 598.186L1786.11 598.571L1788.67 598.861L1788.37 601.568L1785.79 601.276L1782.55 600.889L1779.32 600.484L1776.1 600.06ZM1805.42 603.205L1801.95 602.915L1802.19 600.202L1805.63 600.49L1808.92 600.745L1812.2 600.98L1815.73 601.21L1815.58 603.929L1812.02 603.697L1808.71 603.46L1805.42 603.205ZM1831.97 604.711L1829.21 604.612L1829.3 601.89L1832.06 601.989L1835.39 602.089L1838.72 602.17L1842.89 602.241L1842.86 604.964L1842.01 604.954L1838.66 604.892L1835.32 604.812L1831.97 604.711ZM1858.81 604.961L1856.51 604.988L1856.47 602.265L1858.77 602.238L1862.12 602.18L1865.47 602.101L1868.82 602.001L1870.06 601.958L1870.16 604.678L1868.91 604.723L1865.54 604.823L1862.18 604.902L1858.81 604.961ZM1883.74 64.5917L1885.56 64.4481L1885.79 67.1619L1883.96 67.3054L1880.7 67.5948L1877.42 67.918L1874.11 68.2758L1872.28 68.4915L1871.95 65.7886L1873.8 65.5697L1877.13 65.2097L1880.45 64.8834L1883.74 64.5917ZM1856.86 67.8967L1858.41 67.6544L1858.84 70.3431L1857.29 70.5857L1853.87 71.1541L1850.43 71.7582L1846.96 72.399L1845.48 72.6879L1844.95 70.017L1846.45 69.7236L1849.94 69.0782L1853.41 68.469L1856.86 67.8967ZM1828.72 73.5078L1831.57 72.8456L1832.2 75.4954L1829.35 76.1577L1825.76 77.0225L1822.16 77.9257L1819.01 78.7438L1818.31 76.1111L1821.48 75.2874L1825.11 74.3781L1828.72 73.5078ZM1803.05 80.4181L1805.15 79.795L1805.94 82.4027L1803.84 83.0256L1800.11 84.1642L1796.37 85.3433L1792.97 86.4449L1792.12 83.8577L1795.54 82.7488L1799.31 81.5637L1803.05 80.4181ZM1776.41 89.2919L1779.19 88.2896L1780.13 90.8483L1777.34 91.8506L1773.48 93.2767L1769.59 94.7449L1767.4 95.5934L1766.4 93.057L1768.62 92.2013L1772.52 90.7256L1776.41 89.2919ZM1752.79 98.5327L1753.73 98.1416L1754.78 100.654L1753.84 101.045L1749.85 102.728L1745.84 104.455L1742.3 106.013L1741.19 103.524L1744.75 101.958L1748.78 100.224L1752.79 98.5327ZM1724.31 111.301L1728.77 109.187L1729.93 111.652L1725.49 113.757L1721.35 115.753L1717.69 117.555L1716.48 115.115L1720.16 113.305L1724.31 111.301ZM1703.36 121.781L1704.31 121.289L1705.57 123.704L1704.62 124.196L1700.38 126.423L1696.13 128.697L1693.57 130.086L1692.26 127.697L1694.83 126.299L1699.11 124.016L1703.36 121.781ZM1677.54 135.906L1680.33 134.321L1681.68 136.685L1678.89 138.27L1674.53 140.784L1669.91 143.488L1668.52 141.151L1673.17 138.429L1677.54 135.906ZM1655.46 149.009L1656.83 148.174L1658.26 150.495L1656.89 151.329L1652.42 154.09L1647.94 156.9L1646.71 157.678L1645.25 155.383L1646.48 154.597L1650.98 151.778L1655.46 149.009ZM1632.86 163.358L1633.78 162.762L1635.27 165.039L1634.36 165.635L1629.79 168.649L1625.2 171.714L1623.95 172.561L1622.42 170.309L1623.68 169.454L1628.28 166.38L1632.86 163.358ZM1609.75 178.987L1611.16 178.007L1612.72 180.242L1611.31 181.221L1606.63 184.495L1601.6 188.065L1600.01 185.856L1605.06 182.269L1609.75 178.987ZM1586.11 195.93L1588.96 193.844L1590.58 196.036L1587.73 198.122L1582.95 201.663L1579.65 204.138L1578.01 201.963L1581.32 199.479L1586.11 195.93ZM1561.95 214.222L1567.15 210.207L1568.81 212.365L1563.62 216.371L1558.07 220.712L1556.38 218.578L1561.95 214.222ZM1542.25 229.849L1545.71 227.061L1547.42 229.177L1543.96 231.965L1538.99 236.004L1536.86 237.752L1535.13 235.651L1537.27 233.896L1542.25 229.849ZM1522.2 246.378L1524.63 244.347L1526.38 246.432L1523.95 248.463L1518.9 252.73L1515.99 255.212L1514.22 253.143L1517.14 250.654L1522.2 246.378ZM1501.82 263.827L1503.88 262.034L1505.67 264.086L1503.61 265.88L1498.47 270.38L1495.44 273.054L1493.63 271.017L1496.67 268.335L1501.82 263.827ZM1481.09 282.213L1483.46 280.087L1485.28 282.109L1482.92 284.234L1477.69 288.972L1475.2 291.248L1473.36 289.242L1475.86 286.958L1481.09 282.213ZM1460.03 301.554L1463.34 298.477L1465.2 300.467L1461.89 303.544L1456.57 308.523L1455.26 309.765L1453.38 307.79L1454.71 306.54L1460.03 301.554ZM1438.62 321.867L1443.5 317.176L1445.39 319.136L1440.51 323.827L1435.59 328.585L1433.7 326.632L1438.62 321.867ZM1422.34 337.749L1423.95 336.161L1425.87 338.099L1424.25 339.688L1418.79 345.099L1416.17 347.674L1414.27 345.724L1416.87 343.168L1422.34 337.749ZM1398.25 361.305L1404.54 355.235L1406.42 357.205L1400.13 363.274L1396.57 366.629L1394.71 364.639L1398.25 361.305ZM1379.51 378.803L1384.78 373.935L1386.62 375.944L1381.35 380.813L1376.56 385.147L1374.74 383.118L1379.51 378.803ZM1360.67 395.67L1364.6 392.187L1366.4 394.235L1362.47 397.718L1356.13 403.207L1354.36 401.14L1360.67 395.67ZM1341.73 411.911L1344.01 409.972L1345.77 412.059L1343.48 413.998L1335.29 420.788L1333.57 418.683L1341.73 411.911ZM1322.69 427.533L1323.01 427.269L1324.72 429.393L1324.39 429.657L1314.82 437.256L1314.02 437.872L1312.37 435.711L1313.14 435.114L1322.69 427.533ZM1293.97 449.816L1301.6 444.028L1303.23 446.207L1295.6 451.995L1292.34 454.408L1290.73 452.211L1293.97 449.816ZM1274.72 463.914L1279.77 460.259L1281.35 462.474L1276.3 466.129L1270.26 470.401L1268.7 468.169L1274.72 463.914ZM1255.39 477.413L1257.53 475.938L1259.07 478.187L1256.93 479.662L1247.77 485.829L1246.27 483.562L1255.39 477.413ZM1226.29 496.549L1234.91 491.021L1236.36 493.321L1227.74 498.849L1224.87 500.649L1223.43 498.332L1226.29 496.549ZM1206.81 508.575L1211.87 505.49L1213.27 507.824L1208.21 510.908L1201.58 514.844L1200.21 512.495L1206.81 508.575ZM1187.28 520.022L1188.45 519.342L1189.8 521.708L1188.63 522.387L1178.82 527.911L1177.91 528.409L1176.61 526.013L1177.49 525.531L1187.28 520.022ZM1157.9 536.12L1164.66 532.514L1165.93 534.925L1159.17 538.531L1153.87 541.276L1152.63 538.851L1157.9 536.12ZM1138.27 546.146L1140.5 545.021L1141.71 547.46L1139.48 548.585L1129.46 553.479L1128.31 551.012L1138.27 546.146ZM1108.77 560.14L1116 556.811L1117.13 559.292L1109.89 562.621L1104.71 564.93L1103.62 562.436L1108.77 560.14ZM1089.07 568.781L1091.15 567.884L1092.22 570.39L1090.14 571.288L1080.26 575.417L1079.63 575.671L1078.62 573.14L1079.22 572.898L1089.07 568.781ZM1059.51 580.726L1065.99 578.196L1066.97 580.738L1060.48 583.269L1054.24 585.622L1053.29 583.068L1059.51 580.726ZM1039.79 588.019L1040.52 587.755L1041.44 590.32L1040.71 590.584L1030.82 594.043L1028.54 594.809L1027.69 592.223L1029.93 591.467L1039.79 588.019ZM1010.22 597.969L1014.77 596.498L1015.6 599.094L1011.05 600.565L1002.59 603.188L1001.8 600.582L1010.22 597.969ZM980.678 606.749L988.772 604.449L989.502 607.073L981.408 609.373L976.368 610.741L975.67 608.108L980.678 606.749ZM961.006 611.962L962.515 611.572L963.181 614.213L961.672 614.602L951.814 617.026L949.922 617.468L949.319 614.813L951.18 614.378L961.006 611.962ZM931.551 618.835L936.056 617.841L936.628 620.503L932.122 621.497L923.289 623.338L922.75 620.669L931.551 618.835ZM902.176 624.59L909.412 623.262L909.888 625.944L902.653 627.272L896.462 628.332L896.018 625.645L902.176 624.59ZM872.905 629.248L882.606 627.823L882.985 630.519L873.285 631.944L869.487 632.456L869.139 629.755L872.905 629.248ZM853.458 631.752L855.646 631.484L855.962 634.188L853.774 634.457L844.041 635.535L842.393 635.698L842.141 632.986L843.757 632.826L853.458 631.752ZM824.404 634.623L828.596 634.259L828.816 636.973L824.624 637.337L815.221 638.043L815.034 635.326L824.404 634.623ZM795.509 636.449L801.47 636.143L801.594 638.863L795.632 639.169L787.971 639.472L787.879 636.75L795.509 636.449ZM766.794 637.248L774.297 637.127L774.324 639.851L766.822 639.971L760.689 639.998L760.693 637.275L766.794 637.248ZM738.28 637.041L747.104 637.208L747.037 639.931L738.213 639.764L733.405 639.617L733.504 636.895L738.28 637.041ZM719.393 636.354L719.909 636.376L719.778 639.096L719.262 639.075L709.826 638.567L706.148 638.326L706.342 635.61L709.988 635.848L719.393 636.354ZM691.261 634.514L692.772 634.631L692.547 637.344L691.036 637.228L681.683 636.399L678.95 636.125L679.237 633.417L681.94 633.688L691.261 634.514ZM663.387 631.721L665.708 631.98L665.39 634.685L663.069 634.426L653.807 633.282L651.842 633.016L652.221 630.32L654.156 630.581L663.387 631.721ZM635.791 627.993L638.749 628.427L638.338 631.119L635.38 630.685L626.216 629.233L624.852 629.001L625.324 626.319L626.658 626.546L635.791 627.993ZM608.495 623.352L611.923 623.975L611.421 626.651L607.992 626.028L598.933 624.275L598.013 624.086L598.576 621.422L599.466 621.604L608.495 623.352ZM581.52 617.815L585.261 618.627L584.668 621.284L580.927 620.472L571.98 618.425L571.353 618.274L572.006 615.63L572.603 615.773L581.52 617.815ZM554.887 611.403L558.793 612.39L558.11 615.027L554.204 614.04L545.377 611.703L544.904 611.572L545.645 608.952L546.089 609.075L554.887 611.403ZM528.617 604.136L532.548 605.271L532.547 605.271L531.777 607.883L527.847 606.749L519.145 604.131L518.694 603.99L519.522 601.395L519.945 601.527L528.617 604.136ZM502.733 596.033L506.556 597.277L505.698 599.862L501.875 598.619L493.307 595.726L492.754 595.531L493.668 592.966L494.194 593.151L502.733 596.033ZM477.254 587.115L480.846 588.417L479.904 590.972L476.311 589.67L467.884 586.508L467.112 586.209L468.111 583.676L468.855 583.964L477.254 587.115ZM452.201 577.4L455.449 578.7L454.422 581.222L451.175 579.922L442.895 576.498L441.798 576.03L442.881 573.532L443.95 573.987L452.201 577.4ZM427.598 566.908L430.392 568.136L429.281 570.623L426.488 569.395L418.362 565.716L416.841 565.006L418.005 562.545L419.5 563.241L427.598 566.908ZM403.463 555.659L405.704 556.734L404.513 559.182L402.272 558.107L394.308 554.18L392.27 553.147L393.516 550.725L395.527 551.745L403.463 555.659ZM379.819 543.673L381.416 544.505L380.145 546.913L378.548 546.081L370.752 541.911L368.115 540.463L369.44 538.084L372.051 539.517L379.819 543.673ZM356.687 530.969L357.557 531.46L356.206 533.825L355.336 533.335L347.716 528.929L344.406 526.965L345.809 524.631L349.093 526.579L356.687 530.969ZM326.677 512.949L334.156 517.609L332.728 519.928L325.223 515.252L321.172 512.665L322.651 510.378L326.677 512.949ZM304.821 498.648L311.263 502.965L309.733 505.219L303.291 500.901L298.445 497.574L299.999 495.337L304.821 498.648ZM283.548 483.694L288.877 487.529V487.53L287.274 489.731L281.945 485.896L276.253 481.703L277.882 479.52L283.548 483.694ZM262.879 468.108L267.044 471.323L265.368 473.47L261.202 470.255L254.631 465.066L256.332 462.938L262.879 468.108ZM242.834 451.911L245.795 454.359L244.047 456.448L241.086 454L234.524 448.448L233.608 447.655L235.402 445.606L236.295 446.38L242.834 451.911ZM223.436 435.121L225.163 436.651L223.346 438.679L221.618 437.149L215.276 431.402L213.235 429.51L215.099 427.524L217.117 429.395L223.436 435.121ZM204.705 417.757L205.184 418.211L203.297 420.175L202.819 419.721L196.705 413.788L193.533 410.639L195.464 408.718L198.613 411.845L204.705 417.757ZM180.805 393.748L185.91 399.057L185.91 399.058L183.935 400.933L178.83 395.624L174.539 391.055L176.535 389.203L180.805 393.748ZM163.713 375.124L167.356 379.187L165.316 380.992L161.674 376.929L156.287 370.777L158.348 368.995L163.713 375.124ZM147.359 355.993L149.562 358.633L147.461 360.365L145.257 357.725L139.953 351.213L138.825 349.794L140.968 348.113L142.076 349.507L147.359 355.993ZM131.765 336.374L132.571 337.413V337.413L130.408 339.069L129.602 338.03L124.556 331.359L122.199 328.163L124.401 326.56L126.739 329.73L131.765 336.374ZM112.189 309.492L116.437 315.555L114.197 317.104L109.949 311.04L106.436 305.894L108.696 304.373L112.189 309.492ZM98.4481 288.812L101.19 293.052L98.8932 294.516L96.1509 290.276L91.5731 282.994L93.9059 281.587L98.4481 288.812ZM85.5362 267.711L86.8682 269.951L84.518 271.328L83.1859 269.088L79.053 261.934L77.6909 259.506L80.0752 258.189L81.4205 260.587L85.5362 267.711ZM69.6475 238.954L73.5137 246.278L71.1125 247.564L67.23 240.209L64.8011 235.458L67.2349 234.235L69.6475 238.954ZM58.7535 216.945L61.2054 222.065L58.7406 223.225L56.2887 218.105L52.9465 210.883L55.4267 209.757L58.7535 216.945ZM48.7593 194.581L49.9448 197.332H49.9445L47.4358 198.393L46.2503 195.642L43.1086 188.078L42.1928 185.787L44.7294 184.794L45.6314 187.05L48.7593 194.581ZM36.87 164.241L39.7814 172.128H39.7811L37.2316 173.087L34.3073 165.165L32.5719 160.254L35.1469 159.365L36.87 164.241ZM29.0578 141.122L30.7938 146.503L28.1955 147.321L26.4595 141.94L24.1138 134.312L26.7229 133.53L29.0578 141.122ZM22.2154 117.713L22.9816 120.477L20.3517 121.186L19.5854 118.422L17.5142 110.52L16.8861 107.979L19.5354 107.345L20.1543 109.848L22.2154 117.713ZM14.6383 86.0812L16.3845 94.1185L13.7269 94.715L11.9722 86.6401L10.9032 81.3552L13.5771 80.8351L14.6383 86.0812ZM10.1419 62.0703L11.0761 67.4907L8.38809 67.934L7.45393 62.5132L6.18792 54.4772L8.88203 54.0736L10.1419 62.0703ZM6.68554 37.8335L7.04195 40.6234L4.33709 40.9484L3.98068 38.1584L3.05911 29.9937L2.80278 27.3793L5.51623 27.1338L5.76857 29.7079L6.68554 37.8335ZM3.73294 5.20142L4.30793 13.5925L1.59141 13.7977L1.01335 5.36658L0.73645 0.168213L3.45758 0.0439453L3.73294 5.20142Z" fill="#FEFEFE" fill-opacity="0.4"/>
</svg>
