<svg width="63" height="64" viewBox="0 0 63 64" fill="none" xmlns="http://www.w3.org/2000/svg">
<path d="M31.9136 55.4283C45.656 55.4283 56.7965 44.2681 56.7965 30.5012C56.7965 16.7344 45.656 5.57422 31.9136 5.57422C18.1711 5.57422 7.03064 16.7344 7.03064 30.5012C7.03064 44.2681 18.1711 55.4283 31.9136 55.4283Z" fill="#DDDDDD"/>
<path fill-rule="evenodd" clip-rule="evenodd" d="M61.6732 49.1792C60.4669 49.4036 59.3985 49.628 58.1923 49.8524C57.0205 50.0768 55.9004 50.3013 54.7459 50.5257C54.1256 50.6465 53.6086 50.6983 53.1261 50.9572L53.4018 51.268L53.488 51.4061C53.5052 51.4406 53.6258 51.5614 53.7292 51.6823C54.0394 52.0275 54.3323 52.3728 54.6425 52.7007C54.7114 52.8388 55.2801 53.4085 55.349 53.4776C56.2451 54.5133 57.0205 55.9288 55.4524 57.3098C53.936 58.639 52.6781 57.8622 51.5235 56.5158C51.265 56.2223 51.041 55.9288 50.7998 55.6181L50.1794 54.8413C49.9382 54.5996 49.7142 54.3579 49.4729 54.099L49.3695 54.2026C49.1283 54.5133 47.8187 58.5872 47.6291 59.1742C46.3195 63.0755 46.2161 64.8535 44.2172 62.5749C43.0109 61.1939 41.5118 59.6575 41.4773 56.8955C41.4428 54.1853 42.1666 51.1126 42.1493 48.3506L40.4089 46.6934C39.8403 46.1755 39.375 45.5713 38.8064 45.0017C37.3416 43.5689 29.4322 35.2311 28.9152 34.9377C27.9158 35.9561 26.5889 36.9919 25.4861 37.9586L15.1986 46.9523C14.6127 47.4702 3.51533 57.2753 3.13622 57.4479C2.154 57.8967 1.79213 56.8265 1.48196 56.205C0.72375 54.7205 -0.0172239 53.6157 0.01724 51.4061C0.0517039 49.2655 0.844373 47.8327 1.79213 46.4863C5.18682 41.6182 9.1674 36.0079 12.4759 31.0881C13.8373 29.0511 16.7495 25.2016 17.8006 23.4236C17.387 23.0265 17.1286 22.7331 16.7322 22.267L8.97785 14.3608C7.51314 12.9625 6.32413 11.4434 5.68655 8.80226C5.0662 6.19563 5.46254 3.31279 7.13403 1.84548C9.6499 -0.381376 14.337 0.792472 17.1803 3.01933C18.2486 3.86519 21.1091 7.66294 22.1948 9.16477C22.3843 9.42371 22.5049 9.51002 22.7117 9.76896L27.0369 15.293C27.64 15.0858 28.5016 14.5852 29.1392 14.2227C32.4305 12.4446 36.2216 10.5976 39.6163 8.87131L52.1439 2.43241C53.5569 1.70738 55.2456 1.12046 57.3135 1.43118C59.5536 1.75917 60.2774 2.57051 61.7421 3.53721C62.3624 3.95151 63.3274 4.55569 62.5864 5.43608L50.6102 15.9317C49.1283 17.2264 38.2377 26.9106 36.9281 27.8773C37.1176 28.3434 39.9609 31.8822 40.5812 32.6763L48.5596 42.8611C51.1961 43.1891 54.5564 42.8957 57.055 43.3445C59.8983 43.8624 61.0356 45.4505 62.2935 46.9005C62.5692 47.2113 63.1034 47.6428 63 48.2815C62.8794 48.972 62.3452 48.9548 61.6904 49.0929L61.6732 49.1792ZM13.596 4.79737L13.6477 4.81463L13.6994 4.83189L13.7511 4.84915L13.8028 4.86642L13.8545 4.88368L13.9062 4.90094L13.9579 4.9182L14.0096 4.93547L14.0613 4.95273L14.113 4.96999L14.1647 4.98725L14.2164 5.00452L14.2681 5.02178L14.3198 5.03904L14.3715 5.0563L14.4231 5.07357L14.4748 5.09083L14.5265 5.10809L14.5782 5.12535L14.6299 5.14262L14.6816 5.15988L14.7333 5.17714L14.785 5.1944L14.8367 5.21167L14.8884 5.22893L14.9401 5.24619L14.9918 5.26345L15.0435 5.28072L15.0952 5.29798L15.1469 5.3325L15.1986 5.36703L15.2503 5.40155L15.302 5.43608L15.3537 5.4706L15.4054 5.50513L15.4571 5.53965L15.5088 5.57418L15.5605 5.6087L15.6122 5.64323L15.6638 5.67775L15.7155 5.71228L15.75 5.7468L15.7845 5.78133L15.8189 5.81585L15.8534 5.85038L15.8879 5.8849L15.9223 5.91943L15.9568 5.95395L15.9913 5.98848L16.0257 6.023L16.0602 6.05753L16.0946 6.09205L16.1291 6.12658L16.1636 6.1611L16.198 6.19563L16.2325 6.23015L16.267 6.26468L16.3014 6.2992L16.3359 6.33373L16.3704 6.36825L16.4048 6.40278L16.4393 6.4373L16.4737 6.47183L16.491 6.50635L16.5082 6.52361L16.5254 6.54088L16.5427 6.55814L16.5599 6.5754L16.5771 6.59266L16.5944 6.60993L16.6116 6.62719L16.6288 6.64445L16.6461 6.67898L16.6633 6.7135L16.6805 6.74803L16.6978 6.78255L16.715 6.81708L16.7322 6.8516V6.88613V6.92065V6.95518V6.9897V7.02423V7.05875V7.09328V7.1278V7.16233V7.19685V7.23138V7.2659V7.30043V7.33495V7.36948V7.404V7.43853V7.47305V7.50758V7.5421V7.57663V7.61115L16.715 7.62841L16.6978 7.64568L16.6805 7.66294L16.6633 7.6802L16.6461 7.69746L16.6288 7.71473L16.6116 7.73199L16.5944 7.74925L16.5771 7.76651L16.5599 7.78378L16.5427 7.80104L16.5254 7.8183L16.5082 7.83556L16.491 7.85283L16.4737 7.87009L16.4565 7.88735L16.4393 7.90461L16.4221 7.92188L16.4048 7.93914L16.3876 7.9564L16.3704 7.97366L16.3531 7.99093L16.3359 8.00819L16.3014 8.02545L16.267 8.04271L16.2325 8.05998L16.198 8.07724L16.1636 8.0945C15.4571 8.30165 15.0607 7.66294 14.6644 7.36948L14.6299 7.33495L14.5955 7.30043L14.561 7.2659L14.5265 7.23138L14.4921 7.19685L14.4404 7.16233L14.3887 7.1278L14.337 7.11054L14.2853 7.07601L14.2336 7.05875L14.1819 7.04149L14.1302 7.02423L14.0785 7.00696L14.0268 6.9897L13.9751 6.97244L13.9234 6.95518L13.8717 6.93791L13.82 6.92065L13.7683 6.90339L13.7166 6.88613L13.6649 6.86886L13.6132 6.8516L13.5616 6.83434L13.5099 6.81708L13.4582 6.79981L13.4065 6.78255L13.3548 6.76529L13.3031 6.74803L13.2514 6.73076L13.1997 6.7135L13.148 6.69624L13.0963 6.67898L13.0446 6.66171H12.9929H12.9412H12.8895H12.8378H12.7861H12.7344H12.6827H12.631H12.5793H12.5276H12.4759H12.4242H12.3725H12.3209L12.2692 6.67898L12.2175 6.69624L12.1658 6.7135L12.1141 6.73076L12.0624 6.74803L12.0107 6.76529L11.959 6.78255L11.9073 6.79981L11.8556 6.81708L11.8039 6.83434L11.7522 6.8516L11.7005 6.86886L11.6488 6.90339L11.6143 6.93791L11.5799 6.97244L11.5454 7.00696L11.5109 7.04149L11.4765 7.07601L11.442 7.11054L11.4076 7.14506L11.3731 7.17959L11.3386 7.21411L11.3042 7.24864L11.2697 7.30043L11.2352 7.35221L11.2008 7.404L11.1835 7.45579L11.1663 7.50758L11.1491 7.55936L11.1318 7.61115L11.1146 7.66294L11.0974 7.71473L11.0801 7.76651L11.0629 7.8183L11.0457 7.87009L11.0285 7.92188L11.0112 7.97366L10.994 8.02545L10.9768 8.07724V8.12903V8.18081V8.2326V8.28439V8.33618V8.38796V8.43975V8.49154V8.54332V8.59511V8.6469V8.69869V8.75047V8.80226V8.85405V8.90584V8.95762L10.994 9.00941L11.0112 9.0612L11.0285 9.11299L11.0457 9.16477L11.0629 9.21656L11.0801 9.26835L11.0974 9.32014L11.1146 9.37192L11.1318 9.42371L11.1491 9.4755L11.1663 9.52729L11.1835 9.57907L11.2008 9.63086L11.218 9.68265L11.2352 9.73444L11.2525 9.78622L11.2697 9.83801L11.2869 9.8898L11.3042 9.94159L11.3214 9.99337L11.3386 10.0452L11.3559 10.0969L11.3731 10.1487L11.3903 10.2005L11.4076 10.235L11.4248 10.2523L11.442 10.2696L11.4593 10.2868L11.4765 10.3041L11.4937 10.3214L11.5109 10.3386L11.5282 10.3559L11.5454 10.3731L11.5626 10.3904L11.5799 10.4077L11.5971 10.4249L11.6143 10.4422L11.6316 10.4595L11.6488 10.4767L11.666 10.494L11.6833 10.5112L11.7005 10.5285L11.7177 10.5458L11.735 10.563L11.7522 10.5803L11.7694 10.5976L11.7867 10.6148L11.8039 10.6321L11.8211 10.6493L11.8384 10.6666L11.8556 10.6839L11.8728 10.7011L11.8901 10.7184L11.9073 10.7357L11.9245 10.7529L11.9417 10.7702L11.959 10.7874L11.9762 10.8047L11.9934 10.822L12.0107 10.8392L12.0279 10.8565L12.0451 10.8738L12.0624 10.891L12.0796 10.9083V10.9255V10.9428V10.9601V10.9773V10.9946V11.0119V11.0464V11.0809V11.1154V11.15V11.1845V11.219V11.2535V11.2881V11.3226V11.3571V11.3916V11.4262V11.4607V11.4952L12.0624 11.5297L12.0451 11.5643L12.0279 11.5988L12.0107 11.6333L11.9934 11.6678L11.959 11.7196L11.9245 11.7714L11.8901 11.8232L11.8556 11.875L11.8211 11.9268L11.7867 11.9613L11.7522 11.9958L11.7177 12.0303L11.6833 12.0649L11.6488 12.0821L11.5971 12.0994L11.5454 12.1167L11.4937 12.1339L11.442 12.1512H11.3903H11.3386H11.2869H11.2352H11.1835L11.1318 12.1339L11.0801 12.1167L11.0285 12.0994L10.9768 12.0821L10.9251 12.0649L10.8734 12.0303L10.8217 11.9958L10.77 11.9613L10.7183 11.9268L10.6666 11.8922L10.6149 11.8577L10.5632 11.8059L10.5115 11.7541L10.4598 11.7024L10.4081 11.6506L10.3564 11.5988L10.3047 11.5297L10.253 11.4607L10.2013 11.3916L10.1496 11.3226L10.0979 11.2535L10.0462 11.1845L9.99454 11.0982L9.94284 11.0119L9.89115 10.9255L9.83945 10.8392L9.78775 10.7529L9.75329 10.6666L9.71883 10.563L9.68436 10.4595L9.6499 10.3559L9.61543 10.2523L9.58097 10.1487L9.54651 10.0452L9.51204 9.94159L9.47758 9.82075L9.44312 9.69991L9.40865 9.57907L9.39142 9.45824L9.37419 9.3374L9.35696 9.21656L9.33972 9.07846L9.32249 8.94036L9.30526 8.80226L9.28803 8.66416V8.52606V8.38796V8.26713V8.14629V8.02545V7.90461L9.30526 7.78378L9.32249 7.66294L9.33972 7.5421L9.35696 7.42126L9.37419 7.30043L9.39142 7.19685L9.42588 7.09328L9.46035 6.9897L9.49481 6.88613L9.52928 6.78255L9.56374 6.67898L9.5982 6.5754L9.6499 6.47183L9.70159 6.38551L9.75329 6.2992L9.80499 6.21289L9.85668 6.12658L9.90838 6.04027L9.96007 5.95395L10.0118 5.86764L10.0807 5.78133L10.1496 5.71228L10.2186 5.64323L10.2875 5.57418L10.3564 5.50513L10.4253 5.43608L10.4943 5.36703L10.5804 5.29798L10.6666 5.24619L10.7527 5.1944L10.8389 5.14262L10.9251 5.09083L11.0112 5.03904L11.0974 4.98725L11.1835 4.95273L11.2697 4.9182L11.3731 4.88368L11.4765 4.84915L11.5799 4.81463L11.6833 4.7801L11.7867 4.74558L11.8901 4.72832L11.9934 4.71105L12.0968 4.69379L12.2002 4.67653L12.3036 4.65927L12.4242 4.642H12.5449H12.6655H12.7861H12.9067H13.0274L13.148 4.65927L13.2686 4.67653L13.3892 4.69379L13.5099 4.71105L13.6305 4.72832L13.7511 4.76284L13.596 4.79737Z" fill="#0994D2"/>
<path fill-rule="evenodd" clip-rule="evenodd" d="M13.596 4.79737C14.7678 5.05631 15.9568 5.72954 16.5082 6.38552C16.9045 6.86887 16.7839 7.6802 16.1636 7.85283C15.4571 8.05998 15.0607 7.42127 14.6644 7.12781C13.8717 6.54088 12.2519 6.04027 11.4075 6.79982C10.5632 7.5421 10.8044 9.25109 11.3214 10.1487C11.5626 10.563 12.0968 11.0119 11.8039 11.6678C11.2352 12.9625 9.33971 11.6506 9.13293 8.68143C8.92614 5.86764 10.8561 4.21045 13.6132 4.79737H13.596ZM47.1294 49.1447L43.8898 45.416C43.5451 45.0017 41.9598 43.6725 42.8731 42.8957C43.7691 42.1016 44.8892 43.8451 45.2339 44.2421L49.5591 49.1965L52.1266 52.2001C52.299 52.5109 52.5919 52.7525 52.8331 53.046L53.3156 53.5984L53.3329 53.6157L53.3501 53.6329L53.3673 53.6502L53.6603 53.9954C53.9877 54.3752 55.2801 55.4282 54.4357 56.1532C53.5569 56.9128 52.5747 55.2901 51.6269 54.1335C51.4546 53.9264 51.2823 53.7192 51.1099 53.5639L47.1294 49.1447V49.1447Z" fill="#FEFEFE"/>
</svg>
